<?xml version="1.0" encoding="UTF-8"?>
<!DOCTYPE svg PUBLIC "-//W3C//DTD SVG 1.1//EN" "http://www.w3.org/Graphics/SVG/1.1/DTD/svg11.dtd">
<svg xmlns="http://www.w3.org/2000/svg" version="1.1" width="453px" height="404px" style="shape-rendering:geometricPrecision; text-rendering:geometricPrecision; image-rendering:optimizeQuality; fill-rule:evenodd; clip-rule:evenodd" xmlns:xlink="http://www.w3.org/1999/xlink">
<g><path style="opacity:0.004" fill="#fefffe" d="M 399.5,39.5 C 400.833,40.1667 400.833,40.1667 399.5,39.5 Z"/></g>
<g><path style="opacity:0.008" fill="#fefffe" d="M 34.5,43.5 C 35.8333,44.1667 35.8333,44.1667 34.5,43.5 Z"/></g>
<g><path style="opacity:0.008" fill="#fefffe" d="M 277.5,44.5 C 278.833,45.1667 278.833,45.1667 277.5,44.5 Z"/></g>
<g><path style="opacity:1" fill="#d3d2fb" d="M 324.5,92.5 C 328.743,98.7431 333.91,104.076 340,108.5C 342.865,113.71 346.532,118.377 351,122.5C 351.494,124.134 351.66,125.801 351.5,127.5C 350.761,127.631 350.094,127.464 349.5,127C 344.504,122.179 340.504,116.679 337.5,110.5C 329.387,106.12 323.054,99.953 318.5,92C 306.069,83.8938 293.402,76.2271 280.5,69C 277.833,68.6667 275.167,68.3333 272.5,68C 264.485,64.2565 256.151,61.2565 247.5,59C 238.814,58.5821 230.147,57.9154 221.5,57C 221.167,56.6667 220.833,56.3333 220.5,56C 221.5,55.6667 222.5,55.3333 223.5,55C 216.556,53.5452 209.556,53.2119 202.5,54C 191.523,55.9913 180.523,58.1579 169.5,60.5C 175.365,57.3241 181.699,55.3241 188.5,54.5C 196.778,53.3498 205.112,52.6831 213.5,52.5C 220.25,53.0625 226.917,53.0625 233.5,52.5C 241.816,52.1736 248.983,54.1736 255,58.5C 255.333,58.1667 255.667,57.8333 256,57.5C 259.287,58.1159 262.121,59.6159 264.5,62C 274.574,64.8493 284.574,68.0159 294.5,71.5C 294.281,72.675 294.614,73.675 295.5,74.5C 299.859,76.0305 303.859,78.1971 307.5,81C 308.337,82.0113 308.67,83.1779 308.5,84.5C 310.199,84.3398 311.866,84.5065 313.5,85C 317.322,87.3301 320.988,89.8301 324.5,92.5 Z"/></g>
<g><path style="opacity:1" fill="#e2e1fb" d="M 254.5,52.5 C 256.667,54.5113 259.334,55.6779 262.5,56C 265.482,56.498 268.482,56.6646 271.5,56.5C 271.5,57.5 271.5,58.5 271.5,59.5C 275.887,59.5619 279.221,61.3952 281.5,65C 284.882,65.1379 288.048,64.9712 291,64.5C 292.694,66.4292 294.861,67.4292 297.5,67.5C 297.215,69.288 297.548,70.9547 298.5,72.5C 303.085,74.9553 307.085,78.122 310.5,82C 316.529,83.8852 321.196,87.3852 324.5,92.5C 320.988,89.8301 317.322,87.3301 313.5,85C 311.866,84.5065 310.199,84.3398 308.5,84.5C 308.67,83.1779 308.337,82.0113 307.5,81C 303.859,78.1971 299.859,76.0305 295.5,74.5C 294.614,73.675 294.281,72.675 294.5,71.5C 284.574,68.0159 274.574,64.8493 264.5,62C 262.121,59.6159 259.287,58.1159 256,57.5C 255.667,57.8333 255.333,58.1667 255,58.5C 248.983,54.1736 241.816,52.1736 233.5,52.5C 226.917,53.0625 220.25,53.0625 213.5,52.5C 205.112,52.6831 196.778,53.3498 188.5,54.5C 200.779,50.9477 213.446,49.281 226.5,49.5C 236.118,49.1988 245.452,50.1988 254.5,52.5 Z"/></g>
<g><path style="opacity:0.004" fill="#fefffe" d="M 17.5,56.5 C 18.8333,57.1667 18.8333,57.1667 17.5,56.5 Z"/></g>
<g><path style="opacity:0.008" fill="#fefffe" d="M 297.5,56.5 C 298.833,57.1667 298.833,57.1667 297.5,56.5 Z"/></g>
<g><path style="opacity:1" fill="#c5c5fd" d="M 351.5,127.5 C 353.375,130.889 355.542,134.223 358,137.5C 362.883,149.472 367.55,161.472 372,173.5C 373.946,178.615 375.279,183.949 376,189.5C 376.419,190.672 377.085,191.672 378,192.5C 379.421,200.102 380.421,207.768 381,215.5C 381.383,216.056 381.883,216.389 382.5,216.5C 381.581,230.012 379.581,243.346 376.5,256.5C 373.37,268.422 368.37,279.422 361.5,289.5C 362.01,286.461 362.677,283.461 363.5,280.5C 365.453,279.374 366.953,277.708 368,275.5C 370.076,270.005 371.242,264.505 371.5,259C 370.551,258.383 369.718,258.549 369,259.5C 368.333,258.5 368.333,257.5 369,256.5C 370.503,256.165 371.836,256.165 373,256.5C 373.874,253.621 373.54,250.955 372,248.5C 371.002,251.028 370.169,251.028 369.5,248.5C 370.126,244.655 370.793,240.822 371.5,237C 371,235.5 370.5,234 370,232.5C 369.107,233.711 368.274,233.711 367.5,232.5C 368.325,231.614 369.325,231.281 370.5,231.5C 373.359,204.91 370.192,178.91 361,153.5C 358.444,150.611 356.777,147.277 356,143.5C 355.259,142.359 354.425,142.359 353.5,143.5C 350.956,142.265 350.956,141.099 353.5,140C 353.095,135.751 351.595,131.917 349,128.5C 346.015,125.027 342.515,122.194 338.5,120C 338.5,118.333 338.5,116.667 338.5,115C 336.497,112.36 333.831,110.86 330.5,110.5C 328.36,107.193 326.026,104.026 323.5,101C 320.565,100.753 317.565,100.087 314.5,99C 313.107,97.8289 312.273,96.3289 312,94.5C 311.517,95.448 311.351,96.448 311.5,97.5C 309.063,97.7563 306.729,98.4229 304.5,99.5C 303.757,98.0921 302.923,96.7588 302,95.5C 301.439,96.0219 300.772,96.3552 300,96.5C 297.205,95.8148 294.372,95.3148 291.5,95C 285.34,91.5569 278.673,90.0569 271.5,90.5C 271.5,91.5 271.5,92.5 271.5,93.5C 263.724,94.2151 256.224,93.2151 249,90.5C 248,91.1667 247,91.8333 246,92.5C 244.259,90.5457 242.092,89.5457 239.5,89.5C 239.825,92.5242 238.492,94.1909 235.5,94.5C 231.432,92.7934 227.432,91.1267 223.5,89.5C 223.5,88.1667 223.5,86.8333 223.5,85.5C 218.167,85.5 212.833,85.5 207.5,85.5C 207.5,84.5 207.5,83.5 207.5,82.5C 196.833,82.5 186.167,82.5 175.5,82.5C 175.5,84.1667 175.5,85.8333 175.5,87.5C 172.833,87.5 170.167,87.5 167.5,87.5C 167.756,89.7925 167.423,91.9592 166.5,94C 161.575,95.6271 156.575,97.1271 151.5,98.5C 151.662,100.527 151.495,102.527 151,104.5C 148.34,105.834 145.506,106.668 142.5,107C 141.833,108 141.167,109 140.5,110C 142.612,110.906 143.445,112.406 143,114.5C 140.664,111.94 139.497,112.606 139.5,116.5C 139.709,117.994 140.376,119.161 141.5,120C 139.532,121.544 137.365,122.711 135,123.5C 134.937,125.96 135.104,128.46 135.5,131C 135.108,134.721 133.441,137.721 130.5,140C 132.194,145.149 130.861,146.315 126.5,143.5C 125.603,153.372 124.603,163.206 123.5,173C 123.544,176.931 124.211,180.598 125.5,184C 123.842,185.663 121.842,186.496 119.5,186.5C 119.662,188.527 119.495,190.527 119,192.5C 118.667,192.167 118.333,191.833 118,191.5C 114.459,195.559 111.959,200.226 110.5,205.5C 107.585,206.617 105.585,208.617 104.5,211.5C 103.391,210.41 102.391,210.41 101.5,211.5C 100.134,214.692 99.3007,218.026 99,221.5C 98.2904,222.973 97.1238,223.64 95.5,223.5C 96.4015,227.241 95.0681,229.241 91.5,229.5C 91.6602,231.199 91.4935,232.866 91,234.5C 86.7218,237.783 85.3884,242.116 87,247.5C 85.0704,245.242 83.5704,242.742 82.5,240C 82.8333,239.667 83.1667,239.333 83.5,239C 79.5226,230.124 77.1893,220.79 76.5,211C 77.6116,204.205 77.7783,197.371 77,190.5C 76.0435,193.93 75.5435,197.43 75.5,201C 75.4471,208.359 75.7804,215.859 76.5,223.5C 75.6909,221.708 75.1909,219.708 75,217.5C 73.8602,198.059 76.0269,179.059 81.5,160.5C 80.675,159.614 79.675,159.281 78.5,159.5C 74.9351,167.354 72.4351,175.688 71,184.5C 70.6174,185.056 70.1174,185.389 69.5,185.5C 72.6441,160.38 81.6441,137.714 96.5,117.5C 114.65,90.6944 138.984,71.6944 169.5,60.5C 180.523,58.1579 191.523,55.9913 202.5,54C 209.556,53.2119 216.556,53.5452 223.5,55C 222.5,55.3333 221.5,55.6667 220.5,56C 220.833,56.3333 221.167,56.6667 221.5,57C 230.147,57.9154 238.814,58.5821 247.5,59C 256.151,61.2565 264.485,64.2565 272.5,68C 275.167,68.3333 277.833,68.6667 280.5,69C 293.402,76.2271 306.069,83.8938 318.5,92C 323.054,99.953 329.387,106.12 337.5,110.5C 340.504,116.679 344.504,122.179 349.5,127C 350.094,127.464 350.761,127.631 351.5,127.5 Z"/></g>
<g><path style="opacity:0.008" fill="#fefffe" d="M 101.5,77.5 C 102.833,78.1667 102.833,78.1667 101.5,77.5 Z"/></g>
<g><path style="opacity:1" fill="#bfbefe" d="M 363.5,280.5 C 365.542,277.43 366.542,274.264 366.5,271C 365.599,268.429 364.266,266.096 362.5,264C 361.482,252.642 361.482,241.142 362.5,229.5C 362.023,226.741 360.356,225.075 357.5,224.5C 356.406,221.636 356.906,218.969 359,216.5C 359.483,217.448 359.649,218.448 359.5,219.5C 361.635,219.853 362.968,219.02 363.5,217C 362.449,214.004 361.116,211.17 359.5,208.5C 360.488,205.55 361.321,202.55 362,199.5C 362.333,202.167 362.667,204.833 363,207.5C 364.378,200.882 364.711,194.215 364,187.5C 363.667,188.167 363.333,188.833 363,189.5C 362.363,186.893 361.196,184.56 359.5,182.5C 360.752,180.999 361.752,179.332 362.5,177.5C 364.085,180.272 365.085,180.106 365.5,177C 363.508,169.888 361.675,162.721 360,155.5C 359.667,156.5 359.333,157.5 359,158.5C 357.023,155.688 354.856,153.022 352.5,150.5C 351.675,149.614 350.675,149.281 349.5,149.5C 349.759,146.52 348.426,144.687 345.5,144C 345.833,143.667 346.167,143.333 346.5,143C 344.564,142.187 342.564,141.687 340.5,141.5C 340.5,140.167 340.5,138.833 340.5,137.5C 338.549,137.227 337.049,137.893 336,139.5C 335.411,136.103 334.078,133.103 332,130.5C 331.586,130.957 331.086,131.291 330.5,131.5C 329.833,130.167 329.167,128.833 328.5,127.5C 327.914,127.709 327.414,128.043 327,128.5C 326.581,127.328 325.915,126.328 325,125.5C 323.867,127.211 322.367,127.711 320.5,127C 317.992,123.662 315.325,120.495 312.5,117.5C 310.425,118.762 308.425,118.595 306.5,117C 302.848,116.501 299.182,116.335 295.5,116.5C 295.5,114.167 295.5,111.833 295.5,109.5C 290.167,109.167 284.833,108.833 279.5,108.5C 279.5,107.167 279.5,105.833 279.5,104.5C 269.49,103.666 259.49,102.666 249.5,101.5C 243.312,103.487 236.979,105.487 230.5,107.5C 228.889,106.68 228.222,105.346 228.5,103.5C 226.089,103.137 224.589,104.137 224,106.5C 223.667,106.167 223.333,105.833 223,105.5C 221.611,107.227 219.944,108.561 218,109.5C 213.678,106.399 209.844,106.899 206.5,111C 203.833,111.333 201.167,111.667 198.5,112C 197.378,113.613 197.878,114.78 200,115.5C 204.255,113.478 208.755,112.478 213.5,112.5C 213.5,112.833 213.5,113.167 213.5,113.5C 213.167,113.5 212.833,113.5 212.5,113.5C 209.351,113.415 206.684,114.415 204.5,116.5C 202.685,117.63 200.685,118.296 198.5,118.5C 198.64,116.876 197.973,115.71 196.5,115C 194.5,115 192.5,115 190.5,115C 191.337,113.989 191.67,112.822 191.5,111.5C 188.375,112.103 185.541,113.437 183,115.5C 180.968,113.095 179.468,113.595 178.5,117C 171.968,116.941 165.968,118.607 160.5,122C 162.246,122.471 163.913,123.138 165.5,124C 162.623,125.127 159.623,125.794 156.5,126C 154.625,129.533 151.792,132.033 148,133.5C 147.796,138.756 145.963,143.59 142.5,148C 143,148.5 143.5,149 144,149.5C 144.498,152.817 144.665,156.15 144.5,159.5C 141.886,159.852 140.219,161.352 139.5,164C 139.818,167.727 139.818,171.56 139.5,175.5C 140.552,175.351 141.552,175.517 142.5,176C 139.659,177.582 138.659,179.749 139.5,182.5C 138.094,184.026 136.928,185.693 136,187.5C 135.086,186.346 134.253,186.513 133.5,188C 136.003,189.784 136.003,191.451 133.5,193C 136.167,195 136.167,197 133.5,199C 134.833,200.333 136.167,201.667 137.5,203C 136.033,204.098 135.199,205.598 135,207.5C 134.333,206.833 133.667,206.167 133,205.5C 130.299,207.703 127.466,209.703 124.5,211.5C 122.902,214.601 120.735,217.268 118,219.5C 117.779,216.057 116.779,215.724 115,218.5C 113.873,221.377 113.206,224.377 113,227.5C 112,227.833 111,228.167 110,228.5C 110.743,231.882 109.576,234.715 106.5,237C 104.687,236.954 103.021,237.12 101.5,237.5C 101.291,238.086 100.957,238.586 100.5,239C 101.624,239.249 102.624,239.749 103.5,240.5C 102.167,241.5 100.833,242.5 99.5,243.5C 98.8727,247.293 96.7061,249.626 93,250.5C 91.8732,253.377 91.2065,256.377 91,259.5C 89.1877,256.72 87.021,254.22 84.5,252C 86.0558,249.499 85.3892,247.999 82.5,247.5C 81.745,242.4 79.9117,237.734 77,233.5C 76.5017,230.183 76.335,226.85 76.5,223.5C 75.7804,215.859 75.4471,208.359 75.5,201C 75.5435,197.43 76.0435,193.93 77,190.5C 77.7783,197.371 77.6116,204.205 76.5,211C 77.1893,220.79 79.5226,230.124 83.5,239C 83.1667,239.333 82.8333,239.667 82.5,240C 83.5704,242.742 85.0704,245.242 87,247.5C 85.3884,242.116 86.7218,237.783 91,234.5C 91.4935,232.866 91.6602,231.199 91.5,229.5C 95.0681,229.241 96.4015,227.241 95.5,223.5C 97.1238,223.64 98.2904,222.973 99,221.5C 99.3007,218.026 100.134,214.692 101.5,211.5C 102.391,210.41 103.391,210.41 104.5,211.5C 105.585,208.617 107.585,206.617 110.5,205.5C 111.959,200.226 114.459,195.559 118,191.5C 118.333,191.833 118.667,192.167 119,192.5C 119.495,190.527 119.662,188.527 119.5,186.5C 121.842,186.496 123.842,185.663 125.5,184C 124.211,180.598 123.544,176.931 123.5,173C 124.603,163.206 125.603,153.372 126.5,143.5C 130.861,146.315 132.194,145.149 130.5,140C 133.441,137.721 135.108,134.721 135.5,131C 135.104,128.46 134.937,125.96 135,123.5C 137.365,122.711 139.532,121.544 141.5,120C 140.376,119.161 139.709,117.994 139.5,116.5C 139.497,112.606 140.664,111.94 143,114.5C 143.445,112.406 142.612,110.906 140.5,110C 141.167,109 141.833,108 142.5,107C 145.506,106.668 148.34,105.834 151,104.5C 151.495,102.527 151.662,100.527 151.5,98.5C 156.575,97.1271 161.575,95.6271 166.5,94C 167.423,91.9592 167.756,89.7925 167.5,87.5C 170.167,87.5 172.833,87.5 175.5,87.5C 175.5,85.8333 175.5,84.1667 175.5,82.5C 186.167,82.5 196.833,82.5 207.5,82.5C 207.5,83.5 207.5,84.5 207.5,85.5C 212.833,85.5 218.167,85.5 223.5,85.5C 223.5,86.8333 223.5,88.1667 223.5,89.5C 227.432,91.1267 231.432,92.7934 235.5,94.5C 238.492,94.1909 239.825,92.5242 239.5,89.5C 242.092,89.5457 244.259,90.5457 246,92.5C 247,91.8333 248,91.1667 249,90.5C 256.224,93.2151 263.724,94.2151 271.5,93.5C 271.5,92.5 271.5,91.5 271.5,90.5C 278.673,90.0569 285.34,91.5569 291.5,95C 294.372,95.3148 297.205,95.8148 300,96.5C 300.772,96.3552 301.439,96.0219 302,95.5C 302.923,96.7588 303.757,98.0921 304.5,99.5C 306.729,98.4229 309.063,97.7563 311.5,97.5C 311.351,96.448 311.517,95.448 312,94.5C 312.273,96.3289 313.107,97.8289 314.5,99C 317.565,100.087 320.565,100.753 323.5,101C 326.026,104.026 328.36,107.193 330.5,110.5C 333.831,110.86 336.497,112.36 338.5,115C 338.5,116.667 338.5,118.333 338.5,120C 342.515,122.194 346.015,125.027 349,128.5C 351.595,131.917 353.095,135.751 353.5,140C 350.956,141.099 350.956,142.265 353.5,143.5C 354.425,142.359 355.259,142.359 356,143.5C 356.777,147.277 358.444,150.611 361,153.5C 370.192,178.91 373.359,204.91 370.5,231.5C 369.325,231.281 368.325,231.614 367.5,232.5C 368.274,233.711 369.107,233.711 370,232.5C 370.5,234 371,235.5 371.5,237C 370.793,240.822 370.126,244.655 369.5,248.5C 370.169,251.028 371.002,251.028 372,248.5C 373.54,250.955 373.874,253.621 373,256.5C 371.836,256.165 370.503,256.165 369,256.5C 368.333,257.5 368.333,258.5 369,259.5C 369.718,258.549 370.551,258.383 371.5,259C 371.242,264.505 370.076,270.005 368,275.5C 366.953,277.708 365.453,279.374 363.5,280.5 Z"/></g>
<g><path style="opacity:0.975" fill="#f0f0fc" d="M 254.5,52.5 C 313.522,64.2833 354.022,98.2833 376,154.5C 384.913,181.978 386.913,209.978 382,238.5C 380.764,244.804 378.93,250.804 376.5,256.5C 379.581,243.346 381.581,230.012 382.5,216.5C 382.812,205.789 382.312,195.122 381,184.5C 377.915,180.269 375.582,175.603 374,170.5C 372.878,165.898 372.378,161.232 372.5,156.5C 370.394,156.321 368.728,155.321 367.5,153.5C 366.039,150.618 364.873,147.618 364,144.5C 363,143.833 362,143.167 361,142.5C 360.461,135.802 357.294,130.802 351.5,127.5C 351.66,125.801 351.494,124.134 351,122.5C 346.532,118.377 342.865,113.71 340,108.5C 333.91,104.076 328.743,98.7431 324.5,92.5C 321.196,87.3852 316.529,83.8852 310.5,82C 307.085,78.122 303.085,74.9553 298.5,72.5C 297.548,70.9547 297.215,69.288 297.5,67.5C 294.861,67.4292 292.694,66.4292 291,64.5C 288.048,64.9712 284.882,65.1379 281.5,65C 279.221,61.3952 275.887,59.5619 271.5,59.5C 271.5,58.5 271.5,57.5 271.5,56.5C 268.482,56.6646 265.482,56.498 262.5,56C 259.334,55.6779 256.667,54.5113 254.5,52.5 Z"/></g>
<g><path style="opacity:0.004" fill="#fefffe" d="M 78.5,94.5 C 79.8333,95.1667 79.8333,95.1667 78.5,94.5 Z"/></g>
<g><path style="opacity:0.004" fill="#fefffe" d="M 353.5,98.5 C 354.833,99.1667 354.833,99.1667 353.5,98.5 Z"/></g>
<g><path style="opacity:0.008" fill="#fefffe" d="M 72.5,100.5 C 73.8333,101.167 73.8333,101.167 72.5,100.5 Z"/></g>
<g><path style="opacity:1" fill="#b9b8fd" d="M 363.5,280.5 C 362.677,283.461 362.01,286.461 361.5,289.5C 360.331,292.511 358.664,295.178 356.5,297.5C 353.808,299.862 351.141,302.196 348.5,304.5C 348.77,298.903 349.77,293.57 351.5,288.5C 351.947,290.973 352.947,291.14 354.5,289C 354.167,288.667 353.833,288.333 353.5,288C 355.263,281.171 357.096,281.004 359,287.5C 361.136,284.309 361.636,280.975 360.5,277.5C 359.178,277.33 358.011,277.663 357,278.5C 358.134,273.272 358.467,267.939 358,262.5C 356.154,259.431 355.154,256.098 355,252.5C 354,251.167 353,249.833 352,248.5C 351.667,248.833 351.333,249.167 351,249.5C 350.206,246.529 349.539,243.529 349,240.5C 348.798,242.256 348.298,243.922 347.5,245.5C 345.649,238.033 343.482,230.7 341,223.5C 342.039,209.889 342.872,196.222 343.5,182.5C 343.084,176.675 343.084,171.009 343.5,165.5C 342.349,163.675 341.682,161.675 341.5,159.5C 338.077,157.914 335.411,155.414 333.5,152C 333.784,150.044 333.784,147.877 333.5,145.5C 331.123,145.216 328.956,145.216 327,145.5C 325.086,144.324 325.252,143.324 327.5,142.5C 326.833,141.167 326.167,139.833 325.5,138.5C 323.433,137.866 321.6,136.866 320,135.5C 318.512,137.82 316.679,137.987 314.5,136C 314.833,135.667 315.167,135.333 315.5,135C 310.105,133.428 305.105,131.095 300.5,128C 300.833,127.667 301.167,127.333 301.5,127C 296.837,126.054 292.17,125.221 287.5,124.5C 287.5,123.5 287.5,122.5 287.5,121.5C 277.894,120.309 268.56,118.476 259.5,116C 260.823,116.816 261.489,117.983 261.5,119.5C 253.383,117.294 245.383,114.794 237.5,112C 229.465,111.264 221.465,111.431 213.5,112.5C 208.755,112.478 204.255,113.478 200,115.5C 197.878,114.78 197.378,113.613 198.5,112C 201.167,111.667 203.833,111.333 206.5,111C 209.844,106.899 213.678,106.399 218,109.5C 219.944,108.561 221.611,107.227 223,105.5C 223.333,105.833 223.667,106.167 224,106.5C 224.589,104.137 226.089,103.137 228.5,103.5C 228.222,105.346 228.889,106.68 230.5,107.5C 236.979,105.487 243.312,103.487 249.5,101.5C 259.49,102.666 269.49,103.666 279.5,104.5C 279.5,105.833 279.5,107.167 279.5,108.5C 284.833,108.833 290.167,109.167 295.5,109.5C 295.5,111.833 295.5,114.167 295.5,116.5C 299.182,116.335 302.848,116.501 306.5,117C 308.425,118.595 310.425,118.762 312.5,117.5C 315.325,120.495 317.992,123.662 320.5,127C 322.367,127.711 323.867,127.211 325,125.5C 325.915,126.328 326.581,127.328 327,128.5C 327.414,128.043 327.914,127.709 328.5,127.5C 329.167,128.833 329.833,130.167 330.5,131.5C 331.086,131.291 331.586,130.957 332,130.5C 334.078,133.103 335.411,136.103 336,139.5C 337.049,137.893 338.549,137.227 340.5,137.5C 340.5,138.833 340.5,140.167 340.5,141.5C 342.564,141.687 344.564,142.187 346.5,143C 346.167,143.333 345.833,143.667 345.5,144C 348.426,144.687 349.759,146.52 349.5,149.5C 350.675,149.281 351.675,149.614 352.5,150.5C 354.856,153.022 357.023,155.688 359,158.5C 359.333,157.5 359.667,156.5 360,155.5C 361.675,162.721 363.508,169.888 365.5,177C 365.085,180.106 364.085,180.272 362.5,177.5C 361.752,179.332 360.752,180.999 359.5,182.5C 361.196,184.56 362.363,186.893 363,189.5C 363.333,188.833 363.667,188.167 364,187.5C 364.711,194.215 364.378,200.882 363,207.5C 362.667,204.833 362.333,202.167 362,199.5C 361.321,202.55 360.488,205.55 359.5,208.5C 361.116,211.17 362.449,214.004 363.5,217C 362.968,219.02 361.635,219.853 359.5,219.5C 359.649,218.448 359.483,217.448 359,216.5C 356.906,218.969 356.406,221.636 357.5,224.5C 360.356,225.075 362.023,226.741 362.5,229.5C 361.482,241.142 361.482,252.642 362.5,264C 364.266,266.096 365.599,268.429 366.5,271C 366.542,274.264 365.542,277.43 363.5,280.5 Z"/></g>
<g><path style="opacity:1" fill="#fdfdfe" d="M 235.5,113.5 C 241.685,114.973 247.852,116.639 254,118.5C 256.832,120.833 259.999,122.499 263.5,123.5C 268.205,128.275 273.038,132.941 278,137.5C 279.815,141.796 282.148,145.796 285,149.5C 286.143,152.777 286.977,156.11 287.5,159.5C 288.35,166.799 288.683,174.132 288.5,181.5C 284.567,181.589 281.734,179.922 280,176.5C 279.51,177.793 279.343,179.127 279.5,180.5C 276.015,180.504 272.849,179.504 270,177.5C 268.51,178.317 267.01,179.15 265.5,180C 258.5,180.667 251.5,180.667 244.5,180C 241.766,179.002 240.099,177.168 239.5,174.5C 236.833,174.5 234.167,174.5 231.5,174.5C 231.669,169.959 231.002,169.626 229.5,173.5C 228.961,170.834 227.628,168.667 225.5,167C 222.183,166.502 218.85,166.335 215.5,166.5C 215.5,169.167 215.5,171.833 215.5,174.5C 211.818,174.665 208.152,174.499 204.5,174C 202.802,172.597 202.302,170.764 203,168.5C 201.471,167.271 200.304,165.771 199.5,164C 201.196,160.207 203.696,157.041 207,154.5C 207.689,155.357 208.522,156.023 209.5,156.5C 211.193,154.973 213.027,153.64 215,152.5C 215.333,152.833 215.667,153.167 216,153.5C 215.464,145.206 215.464,136.873 216,128.5C 216.5,127.5 217,126.5 217.5,125.5C 216.044,125.678 214.711,124.844 213.5,123C 214.766,122.691 215.933,122.191 217,121.5C 217.29,119.048 217.956,116.715 219,114.5C 220.049,115.517 221.216,115.684 222.5,115C 222.167,114.667 221.833,114.333 221.5,114C 226.155,113.501 230.821,113.334 235.5,113.5 Z"/></g>
<g><path style="opacity:1" fill="#f0f0fd" d="M 212.5,113.5 C 212.833,113.5 213.167,113.5 213.5,113.5C 214.5,113.5 215.5,113.5 216.5,113.5C 215.517,114.85 214.184,115.85 212.5,116.5C 213.025,117.192 213.692,117.692 214.5,118C 209.546,122.668 207.046,128.501 207,135.5C 203.984,138.198 203.817,141.031 206.5,144C 203.572,145.064 201.572,147.064 200.5,150C 199.552,150.483 198.552,150.649 197.5,150.5C 194.78,155.493 192.946,160.827 192,166.5C 190.962,171.476 191.628,176.142 194,180.5C 197.639,182.487 201.305,184.487 205,186.5C 211.202,185.492 217.368,184.159 223.5,182.5C 226.011,183.655 228.678,184.322 231.5,184.5C 231.5,185.5 231.5,186.5 231.5,187.5C 237.465,188.297 243.465,188.963 249.5,189.5C 252.833,189.333 256.167,189.167 259.5,189C 264.31,187.048 269.31,185.881 274.5,185.5C 278.997,185.89 283.33,186.89 287.5,188.5C 287.047,189.458 286.381,190.292 285.5,191C 286.451,191.718 286.617,192.551 286,193.5C 284.333,192.167 282.667,192.167 281,193.5C 280.521,191.354 279.188,190.354 277,190.5C 272.019,190.684 267.685,192.351 264,195.5C 263.612,194.572 262.945,193.905 262,193.5C 255.394,195.592 248.561,196.926 241.5,197.5C 237.666,197.267 234.166,196.267 231,194.5C 230.581,195.672 229.915,196.672 229,197.5C 228.596,194.057 226.929,192.724 224,193.5C 223.383,192.551 223.549,191.718 224.5,191C 220.071,190.444 215.738,190.944 211.5,192.5C 205.759,192.06 200.092,191.227 194.5,190C 192.804,186.207 190.304,183.041 187,180.5C 186.333,174.833 186.333,169.167 187,163.5C 187.518,160.977 188.852,158.977 191,157.5C 195.443,147.166 199.276,136.666 202.5,126C 204.044,124.034 205.21,121.868 206,119.5C 206.667,118.167 207.333,118.167 208,119.5C 208.976,117.204 210.476,115.204 212.5,113.5 Z"/></g>
<g><path style="opacity:1" fill="#f6f6fe" d="M 235.5,113.5 C 230.821,113.334 226.155,113.501 221.5,114C 221.833,114.333 222.167,114.667 222.5,115C 221.216,115.684 220.049,115.517 219,114.5C 217.956,116.715 217.29,119.048 217,121.5C 215.933,122.191 214.766,122.691 213.5,123C 214.711,124.844 216.044,125.678 217.5,125.5C 217,126.5 216.5,127.5 216,128.5C 215.464,136.873 215.464,145.206 216,153.5C 215.667,153.167 215.333,152.833 215,152.5C 213.027,153.64 211.193,154.973 209.5,156.5C 208.522,156.023 207.689,155.357 207,154.5C 203.696,157.041 201.196,160.207 199.5,164C 200.304,165.771 201.471,167.271 203,168.5C 202.302,170.764 202.802,172.597 204.5,174C 208.152,174.499 211.818,174.665 215.5,174.5C 215.5,171.833 215.5,169.167 215.5,166.5C 218.85,166.335 222.183,166.502 225.5,167C 227.628,168.667 228.961,170.834 229.5,173.5C 231.002,169.626 231.669,169.959 231.5,174.5C 234.167,174.5 236.833,174.5 239.5,174.5C 240.099,177.168 241.766,179.002 244.5,180C 251.5,180.667 258.5,180.667 265.5,180C 267.01,179.15 268.51,178.317 270,177.5C 272.849,179.504 276.015,180.504 279.5,180.5C 279.343,179.127 279.51,177.793 280,176.5C 281.734,179.922 284.567,181.589 288.5,181.5C 288.683,174.132 288.35,166.799 287.5,159.5C 288.167,160.5 288.833,161.5 289.5,162.5C 289.673,171.195 289.34,179.862 288.5,188.5C 288.167,188.5 287.833,188.5 287.5,188.5C 283.33,186.89 278.997,185.89 274.5,185.5C 269.31,185.881 264.31,187.048 259.5,189C 256.167,189.167 252.833,189.333 249.5,189.5C 243.465,188.963 237.465,188.297 231.5,187.5C 231.5,186.5 231.5,185.5 231.5,184.5C 228.678,184.322 226.011,183.655 223.5,182.5C 217.368,184.159 211.202,185.492 205,186.5C 201.305,184.487 197.639,182.487 194,180.5C 191.628,176.142 190.962,171.476 192,166.5C 192.946,160.827 194.78,155.493 197.5,150.5C 198.552,150.649 199.552,150.483 200.5,150C 201.572,147.064 203.572,145.064 206.5,144C 203.817,141.031 203.984,138.198 207,135.5C 207.046,128.501 209.546,122.668 214.5,118C 213.692,117.692 213.025,117.192 212.5,116.5C 214.184,115.85 215.517,114.85 216.5,113.5C 222.963,112.23 229.296,112.23 235.5,113.5 Z"/></g>
<g><path style="opacity:1" fill="#d0cff5" d="M 261.5,119.5 C 262.167,120.833 262.833,122.167 263.5,123.5C 259.999,122.499 256.832,120.833 254,118.5C 247.852,116.639 241.685,114.973 235.5,113.5C 229.296,112.23 222.963,112.23 216.5,113.5C 215.5,113.5 214.5,113.5 213.5,113.5C 213.5,113.167 213.5,112.833 213.5,112.5C 221.465,111.431 229.465,111.264 237.5,112C 245.383,114.794 253.383,117.294 261.5,119.5 Z"/></g>
<g><path style="opacity:1" fill="#eaeafe" d="M 212.5,113.5 C 210.476,115.204 208.976,117.204 208,119.5C 207.333,118.167 206.667,118.167 206,119.5C 205.21,121.868 204.044,124.034 202.5,126C 199.276,136.666 195.443,147.166 191,157.5C 188.852,158.977 187.518,160.977 187,163.5C 186.333,169.167 186.333,174.833 187,180.5C 190.304,183.041 192.804,186.207 194.5,190C 200.092,191.227 205.759,192.06 211.5,192.5C 215.738,190.944 220.071,190.444 224.5,191C 223.549,191.718 223.383,192.551 224,193.5C 226.929,192.724 228.596,194.057 229,197.5C 229.915,196.672 230.581,195.672 231,194.5C 234.166,196.267 237.666,197.267 241.5,197.5C 248.561,196.926 255.394,195.592 262,193.5C 262.945,193.905 263.612,194.572 264,195.5C 267.685,192.351 272.019,190.684 277,190.5C 279.188,190.354 280.521,191.354 281,193.5C 282.667,192.167 284.333,192.167 286,193.5C 286.617,192.551 286.451,191.718 285.5,191C 286.381,190.292 287.047,189.458 287.5,188.5C 287.833,188.5 288.167,188.5 288.5,188.5C 288.067,191.166 287.567,193.832 287,196.5C 286.617,197.056 286.117,197.389 285.5,197.5C 284.312,198.048 283.145,198.381 282,198.5C 280.014,197.721 278.181,196.055 276.5,193.5C 275.636,195.197 274.303,196.363 272.5,197C 258.15,200.336 243.65,202.836 229,204.5C 226.162,202.501 222.995,201.168 219.5,200.5C 210.547,200.356 201.881,199.023 193.5,196.5C 192.261,192.929 190.427,192.262 188,194.5C 186.769,189.411 185.436,184.077 184,178.5C 183.667,179.5 183.333,180.5 183,181.5C 182.019,170.622 183.019,160.289 186,150.5C 187.699,149.594 189.533,149.261 191.5,149.5C 191.922,145.121 192.589,140.788 193.5,136.5C 192.711,132.898 194.045,130.065 197.5,128C 196.549,127.282 196.383,126.449 197,125.5C 198.333,124.833 199.667,124.167 201,123.5C 201.891,120.97 203.058,118.637 204.5,116.5C 206.684,114.415 209.351,113.415 212.5,113.5 Z"/></g>
<g><path style="opacity:1" fill="#e4e4fe" d="M 204.5,116.5 C 203.058,118.637 201.891,120.97 201,123.5C 199.667,124.167 198.333,124.833 197,125.5C 196.383,126.449 196.549,127.282 197.5,128C 194.045,130.065 192.711,132.898 193.5,136.5C 192.589,140.788 191.922,145.121 191.5,149.5C 189.533,149.261 187.699,149.594 186,150.5C 183.019,160.289 182.019,170.622 183,181.5C 183.333,180.5 183.667,179.5 184,178.5C 185.436,184.077 186.769,189.411 188,194.5C 190.427,192.262 192.261,192.929 193.5,196.5C 201.881,199.023 210.547,200.356 219.5,200.5C 222.995,201.168 226.162,202.501 229,204.5C 243.65,202.836 258.15,200.336 272.5,197C 274.303,196.363 275.636,195.197 276.5,193.5C 278.181,196.055 280.014,197.721 282,198.5C 283.145,198.381 284.312,198.048 285.5,197.5C 285.267,199.062 284.6,200.395 283.5,201.5C 282.5,201.5 281.5,201.5 280.5,201.5C 280.167,205.5 279.833,205.5 279.5,201.5C 268.293,200.946 257.96,203.613 248.5,209.5C 246.781,206.952 245.448,207.285 244.5,210.5C 240.924,211.422 237.424,211.089 234,209.5C 230.851,211.362 227.351,212.029 223.5,211.5C 223.5,210.5 223.5,209.5 223.5,208.5C 213.399,208.245 203.399,207.245 193.5,205.5C 192.376,204.086 191.376,202.586 190.5,201C 189.551,200.383 188.718,200.549 188,201.5C 184,195.5 180,189.5 176,183.5C 176.065,176.517 176.398,169.517 177,162.5C 179.764,155.246 182.598,148.079 185.5,141C 184.622,139.2 183.955,137.367 183.5,135.5C 189.06,133.803 192.06,130.303 192.5,125C 194.041,123.629 195.375,122.129 196.5,120.5C 197.5,120.167 198.167,119.5 198.5,118.5C 200.685,118.296 202.685,117.63 204.5,116.5 Z"/></g>
<g><path style="opacity:1" fill="#b9b8fd" d="M 198.5,118.5 C 198.167,119.5 197.5,120.167 196.5,120.5C 192.181,123.144 187.848,125.811 183.5,128.5C 180.015,133.815 176.182,138.815 172,143.5C 171.209,144.745 170.709,146.078 170.5,147.5C 169.542,147.953 168.708,148.619 168,149.5C 163.631,163.209 162.464,177.209 164.5,191.5C 167.906,199.317 172.073,206.65 177,213.5C 179.03,215.737 181.53,217.237 184.5,218C 186.213,219.378 187.547,221.045 188.5,223C 192.436,223.461 195.436,225.294 197.5,228.5C 195.442,227.067 193.108,226.4 190.5,226.5C 188.668,225.752 187.001,224.752 185.5,223.5C 183.426,218.706 179.759,216.706 174.5,217.5C 174.808,215.076 174.474,212.743 173.5,210.5C 170.061,207.71 167.228,204.377 165,200.5C 163.149,195.345 161.982,190.012 161.5,184.5C 160.914,184.291 160.414,183.957 160,183.5C 159.252,185.909 158.085,188.075 156.5,190C 157.287,193.566 155.787,196.066 152,197.5C 151.503,200.146 151.336,202.813 151.5,205.5C 150.178,205.33 149.011,205.663 148,206.5C 146.783,209.994 145.283,213.327 143.5,216.5C 142.311,217.429 140.978,217.762 139.5,217.5C 139.657,218.873 139.49,220.207 139,221.5C 133.534,224.805 128.701,228.805 124.5,233.5C 123.571,234.689 123.238,236.022 123.5,237.5C 122.022,237.238 120.689,237.571 119.5,238.5C 122.028,239.517 122.028,240.684 119.5,242C 118.167,242.333 116.833,242.667 115.5,243C 116.308,243.308 116.975,243.808 117.5,244.5C 115.639,245.528 114.305,247.028 113.5,249C 111.5,249.833 109.5,250.667 107.5,251.5C 108.668,252.906 108.335,254.072 106.5,255C 107.167,255.333 107.833,255.667 108.5,256C 104.118,260.472 100.118,265.806 96.5,272C 95.4232,272.47 94.4232,272.303 93.5,271.5C 91.6003,266.605 89.2669,261.938 86.5,257.5C 82.9102,255.183 81.5769,251.849 82.5,247.5C 85.3892,247.999 86.0558,249.499 84.5,252C 87.021,254.22 89.1877,256.72 91,259.5C 91.2065,256.377 91.8732,253.377 93,250.5C 96.7061,249.626 98.8727,247.293 99.5,243.5C 100.833,242.5 102.167,241.5 103.5,240.5C 102.624,239.749 101.624,239.249 100.5,239C 100.957,238.586 101.291,238.086 101.5,237.5C 103.021,237.12 104.687,236.954 106.5,237C 109.576,234.715 110.743,231.882 110,228.5C 111,228.167 112,227.833 113,227.5C 113.206,224.377 113.873,221.377 115,218.5C 116.779,215.724 117.779,216.057 118,219.5C 120.735,217.268 122.902,214.601 124.5,211.5C 127.466,209.703 130.299,207.703 133,205.5C 133.667,206.167 134.333,206.833 135,207.5C 135.199,205.598 136.033,204.098 137.5,203C 136.167,201.667 134.833,200.333 133.5,199C 136.167,197 136.167,195 133.5,193C 136.003,191.451 136.003,189.784 133.5,188C 134.253,186.513 135.086,186.346 136,187.5C 136.928,185.693 138.094,184.026 139.5,182.5C 138.659,179.749 139.659,177.582 142.5,176C 141.552,175.517 140.552,175.351 139.5,175.5C 139.818,171.56 139.818,167.727 139.5,164C 140.219,161.352 141.886,159.852 144.5,159.5C 144.665,156.15 144.498,152.817 144,149.5C 143.5,149 143,148.5 142.5,148C 145.963,143.59 147.796,138.756 148,133.5C 151.792,132.033 154.625,129.533 156.5,126C 159.623,125.794 162.623,125.127 165.5,124C 163.913,123.138 162.246,122.471 160.5,122C 165.968,118.607 171.968,116.941 178.5,117C 179.468,113.595 180.968,113.095 183,115.5C 185.541,113.437 188.375,112.103 191.5,111.5C 191.67,112.822 191.337,113.989 190.5,115C 192.5,115 194.5,115 196.5,115C 197.973,115.71 198.64,116.876 198.5,118.5 Z"/></g>
<g><path style="opacity:1" fill="#b0b0fa" d="M 351.5,288.5 C 351.9,283.233 353.233,277.9 355.5,272.5C 352.661,269.177 350.494,265.51 349,261.5C 348.333,262.833 347.667,262.833 347,261.5C 346.654,258.424 345.988,255.424 345,252.5C 344.667,253.5 344.333,254.5 344,255.5C 342.92,253.447 342.086,251.28 341.5,249C 341.833,248.667 342.167,248.333 342.5,248C 340.333,247.167 338.833,245.667 338,243.5C 335.901,237.623 334.401,231.623 333.5,225.5C 331.61,225.703 330.11,225.037 329,223.5C 327.005,217.816 327.505,212.482 330.5,207.5C 331.663,202.198 331.829,196.864 331,191.5C 330.333,192.833 329.667,192.833 329,191.5C 328.505,193.473 328.338,195.473 328.5,197.5C 327.167,198.167 325.833,198.833 324.5,199.5C 324.5,202.167 324.5,204.833 324.5,207.5C 321.728,208.371 319.062,208.371 316.5,207.5C 316.334,203.486 316.501,199.486 317,195.5C 318.022,194.646 318.855,193.646 319.5,192.5C 317.297,189.523 316.963,186.356 318.5,183C 316.402,180.146 314.069,177.479 311.5,175C 313.421,173.759 313.754,172.259 312.5,170.5C 308.947,170.113 305.614,169.113 302.5,167.5C 301.675,171.122 301.175,174.789 301,178.5C 299.442,176.641 297.609,175.141 295.5,174C 297.843,171.135 298.51,167.969 297.5,164.5C 296.201,165.09 295.368,166.09 295,167.5C 294.667,166.833 294.333,166.167 294,165.5C 292.761,171.056 292.094,176.722 292,182.5C 291.722,183.416 291.222,184.082 290.5,184.5C 290.825,176.981 290.492,169.648 289.5,162.5C 288.833,161.5 288.167,160.5 287.5,159.5C 286.977,156.11 286.143,152.777 285,149.5C 282.148,145.796 279.815,141.796 278,137.5C 273.038,132.941 268.205,128.275 263.5,123.5C 262.833,122.167 262.167,120.833 261.5,119.5C 261.489,117.983 260.823,116.816 259.5,116C 268.56,118.476 277.894,120.309 287.5,121.5C 287.5,122.5 287.5,123.5 287.5,124.5C 292.17,125.221 296.837,126.054 301.5,127C 301.167,127.333 300.833,127.667 300.5,128C 305.105,131.095 310.105,133.428 315.5,135C 315.167,135.333 314.833,135.667 314.5,136C 316.679,137.987 318.512,137.82 320,135.5C 321.6,136.866 323.433,137.866 325.5,138.5C 326.167,139.833 326.833,141.167 327.5,142.5C 325.252,143.324 325.086,144.324 327,145.5C 328.956,145.216 331.123,145.216 333.5,145.5C 333.784,147.877 333.784,150.044 333.5,152C 335.411,155.414 338.077,157.914 341.5,159.5C 341.682,161.675 342.349,163.675 343.5,165.5C 343.084,171.009 343.084,176.675 343.5,182.5C 342.872,196.222 342.039,209.889 341,223.5C 343.482,230.7 345.649,238.033 347.5,245.5C 348.298,243.922 348.798,242.256 349,240.5C 349.539,243.529 350.206,246.529 351,249.5C 351.333,249.167 351.667,248.833 352,248.5C 353,249.833 354,251.167 355,252.5C 355.154,256.098 356.154,259.431 358,262.5C 358.467,267.939 358.134,273.272 357,278.5C 358.011,277.663 359.178,277.33 360.5,277.5C 361.636,280.975 361.136,284.309 359,287.5C 357.096,281.004 355.263,281.171 353.5,288C 353.833,288.333 354.167,288.667 354.5,289C 352.947,291.14 351.947,290.973 351.5,288.5 Z"/></g>
<g><path style="opacity:0.008" fill="#fefffe" d="M 77.5,120.5 C 78.8333,121.167 78.8333,121.167 77.5,120.5 Z"/></g>
<g><path style="opacity:0.008" fill="#fefffe" d="M 374.5,121.5 C 375.833,122.167 375.833,122.167 374.5,121.5 Z"/></g>
<g><path style="opacity:1" fill="#b5b3f2" d="M 96.5,117.5 C 97.8734,117.657 99.2068,117.49 100.5,117C 102.213,113.07 104.547,109.57 107.5,106.5C 111.16,103.009 114.994,99.6758 119,96.5C 119.692,97.0253 120.192,97.6919 120.5,98.5C 119.46,101.44 117.46,103.274 114.5,104C 112.772,105.973 110.939,107.806 109,109.5C 108.316,110.784 108.483,111.951 109.5,113C 107.314,116.205 105.814,119.705 105,123.5C 103.079,125.963 100.746,127.963 98,129.5C 97.5172,130.448 97.3505,131.448 97.5,132.5C 96.1779,132.33 95.0113,132.663 94,133.5C 91.1382,140.563 87.9716,147.563 84.5,154.5C 83.3279,154.081 82.3279,153.415 81.5,152.5C 83.1022,149.763 83.9355,146.763 84,143.5C 90.0268,135.778 94.1935,127.112 96.5,117.5 Z"/></g>
<g><path style="opacity:1" fill="#ddddfd" d="M 183.5,135.5 C 183.955,137.367 184.622,139.2 185.5,141C 182.598,148.079 179.764,155.246 177,162.5C 176.398,169.517 176.065,176.517 176,183.5C 180,189.5 184,195.5 188,201.5C 188.718,200.549 189.551,200.383 190.5,201C 191.376,202.586 192.376,204.086 193.5,205.5C 203.399,207.245 213.399,208.245 223.5,208.5C 223.5,209.5 223.5,210.5 223.5,211.5C 227.351,212.029 230.851,211.362 234,209.5C 237.424,211.089 240.924,211.422 244.5,210.5C 245.448,207.285 246.781,206.952 248.5,209.5C 257.96,203.613 268.293,200.946 279.5,201.5C 279.833,205.5 280.167,205.5 280.5,201.5C 281.5,201.5 282.5,201.5 283.5,201.5C 282.833,202.833 282.167,204.167 281.5,205.5C 277.165,205.917 272.832,206.417 268.5,207C 269.572,208.284 270.905,208.617 272.5,208C 268.699,210.083 265.032,210.583 261.5,209.5C 254.288,210.525 247.122,212.525 240,215.5C 236.333,216.833 232.667,216.833 229,215.5C 225.941,215.481 223.107,216.147 220.5,217.5C 212.453,216.529 204.453,215.363 196.5,214C 193.629,212.065 190.629,210.399 187.5,209C 184.91,206.996 182.91,204.496 181.5,201.5C 180.675,200.614 179.675,200.281 178.5,200.5C 178.54,197.575 177.707,194.909 176,192.5C 175.405,193.899 175.572,195.232 176.5,196.5C 176.167,196.833 175.833,197.167 175.5,197.5C 173.197,191.315 171.531,184.981 170.5,178.5C 171.405,174.451 171.405,170.451 170.5,166.5C 171.012,163.649 172.679,162.316 175.5,162.5C 174.968,158.64 175.135,154.64 176,150.5C 178.56,145.388 181.06,140.388 183.5,135.5 Z"/></g>
<g><path style="opacity:0.004" fill="#fefffe" d="M 46.5,149.5 C 47.8333,150.167 47.8333,150.167 46.5,149.5 Z"/></g>
<g><path style="opacity:0.008" fill="#fefffe" d="M 418.5,151.5 C 419.833,152.167 419.833,152.167 418.5,151.5 Z"/></g>
<g><path style="opacity:1" fill="#d3d4fb" d="M 196.5,120.5 C 195.375,122.129 194.041,123.629 192.5,125C 192.06,130.303 189.06,133.803 183.5,135.5C 181.06,140.388 178.56,145.388 176,150.5C 175.135,154.64 174.968,158.64 175.5,162.5C 172.679,162.316 171.012,163.649 170.5,166.5C 171.405,170.451 171.405,174.451 170.5,178.5C 171.531,184.981 173.197,191.315 175.5,197.5C 175.833,197.167 176.167,196.833 176.5,196.5C 175.572,195.232 175.405,193.899 176,192.5C 177.707,194.909 178.54,197.575 178.5,200.5C 179.675,200.281 180.675,200.614 181.5,201.5C 182.91,204.496 184.91,206.996 187.5,209C 190.629,210.399 193.629,212.065 196.5,214C 204.453,215.363 212.453,216.529 220.5,217.5C 223.107,216.147 225.941,215.481 229,215.5C 232.667,216.833 236.333,216.833 240,215.5C 247.122,212.525 254.288,210.525 261.5,209.5C 265.032,210.583 268.699,210.083 272.5,208C 270.905,208.617 269.572,208.284 268.5,207C 272.832,206.417 277.165,205.917 281.5,205.5C 276.656,210.066 271.323,213.233 265.5,215C 265.833,215.333 266.167,215.667 266.5,216C 265.016,217.574 263.349,218.907 261.5,220C 251.532,222.072 241.866,224.906 232.5,228.5C 230.224,227.787 227.891,227.287 225.5,227C 226.888,226.111 226.722,225.611 225,225.5C 222.274,227.762 219.441,227.762 216.5,225.5C 214.395,226.014 212.561,226.347 211,226.5C 206.833,225 202.667,223.5 198.5,222C 197.531,220.242 196.364,219.742 195,220.5C 192.773,217.423 189.94,216.59 186.5,218C 184.833,217 183.5,215.667 182.5,214C 182.833,213.667 183.167,213.333 183.5,213C 180.937,210.47 178.103,208.303 175,206.5C 171.535,201.902 168.868,196.902 167,191.5C 166.026,185.184 165.193,178.851 164.5,172.5C 165.992,164.041 167.992,155.708 170.5,147.5C 170.709,146.078 171.209,144.745 172,143.5C 176.182,138.815 180.015,133.815 183.5,128.5C 187.848,125.811 192.181,123.144 196.5,120.5 Z"/></g>
<g><path style="opacity:0.008" fill="#fefffe" d="M 29.5,160.5 C 30.8333,161.167 30.8333,161.167 29.5,160.5 Z"/></g>
<g><path style="opacity:1" fill="#d7d6fc" d="M 351.5,127.5 C 357.294,130.802 360.461,135.802 361,142.5C 362,143.167 363,143.833 364,144.5C 364.873,147.618 366.039,150.618 367.5,153.5C 368.728,155.321 370.394,156.321 372.5,156.5C 372.378,161.232 372.878,165.898 374,170.5C 375.582,175.603 377.915,180.269 381,184.5C 382.312,195.122 382.812,205.789 382.5,216.5C 381.883,216.389 381.383,216.056 381,215.5C 380.421,207.768 379.421,200.102 378,192.5C 377.085,191.672 376.419,190.672 376,189.5C 375.279,183.949 373.946,178.615 372,173.5C 367.55,161.472 362.883,149.472 358,137.5C 355.542,134.223 353.375,130.889 351.5,127.5 Z"/></g>
<g><path style="opacity:1" fill="#b0b0fd" d="M 185.5,223.5 C 183.448,222.29 181.282,221.29 179,220.5C 176.785,220.9 174.952,221.9 173.5,223.5C 169.636,224.102 165.969,225.268 162.5,227C 158.499,230.334 154.166,233.168 149.5,235.5C 142.812,242.854 135.812,249.854 128.5,256.5C 122.934,261.065 118.934,266.732 116.5,273.5C 111.237,280.026 107.57,287.359 105.5,295.5C 104.778,295.918 104.278,296.584 104,297.5C 103.504,295.965 103.67,294.465 104.5,293C 103.349,291.177 102.182,289.344 101,287.5C 97.5919,284.417 93.9252,281.751 90,279.5C 89.5065,277.866 89.3398,276.199 89.5,274.5C 90.8333,274.5 92.1667,274.5 93.5,274.5C 93.5,273.5 93.5,272.5 93.5,271.5C 94.4232,272.303 95.4232,272.47 96.5,272C 100.118,265.806 104.118,260.472 108.5,256C 107.833,255.667 107.167,255.333 106.5,255C 108.335,254.072 108.668,252.906 107.5,251.5C 109.5,250.667 111.5,249.833 113.5,249C 114.305,247.028 115.639,245.528 117.5,244.5C 116.975,243.808 116.308,243.308 115.5,243C 116.833,242.667 118.167,242.333 119.5,242C 122.028,240.684 122.028,239.517 119.5,238.5C 120.689,237.571 122.022,237.238 123.5,237.5C 123.238,236.022 123.571,234.689 124.5,233.5C 128.701,228.805 133.534,224.805 139,221.5C 139.49,220.207 139.657,218.873 139.5,217.5C 140.978,217.762 142.311,217.429 143.5,216.5C 145.283,213.327 146.783,209.994 148,206.5C 149.011,205.663 150.178,205.33 151.5,205.5C 151.336,202.813 151.503,200.146 152,197.5C 155.787,196.066 157.287,193.566 156.5,190C 158.085,188.075 159.252,185.909 160,183.5C 160.414,183.957 160.914,184.291 161.5,184.5C 161.982,190.012 163.149,195.345 165,200.5C 167.228,204.377 170.061,207.71 173.5,210.5C 174.474,212.743 174.808,215.076 174.5,217.5C 179.759,216.706 183.426,218.706 185.5,223.5 Z"/></g>
<g><path style="opacity:0.008" fill="#fefffe" d="M 438.5,201.5 C 439.833,202.167 439.833,202.167 438.5,201.5 Z"/></g>
<g><path style="opacity:1" fill="#c2c3fa" d="M 170.5,147.5 C 167.992,155.708 165.992,164.041 164.5,172.5C 165.193,178.851 166.026,185.184 167,191.5C 168.868,196.902 171.535,201.902 175,206.5C 178.103,208.303 180.937,210.47 183.5,213C 183.167,213.333 182.833,213.667 182.5,214C 183.5,215.667 184.833,217 186.5,218C 189.94,216.59 192.773,217.423 195,220.5C 196.364,219.742 197.531,220.242 198.5,222C 202.667,223.5 206.833,225 211,226.5C 212.561,226.347 214.395,226.014 216.5,225.5C 219.441,227.762 222.274,227.762 225,225.5C 226.722,225.611 226.888,226.111 225.5,227C 227.891,227.287 230.224,227.787 232.5,228.5C 241.866,224.906 251.532,222.072 261.5,220C 263.349,218.907 265.016,217.574 266.5,216C 266.167,215.667 265.833,215.333 265.5,215C 271.323,213.233 276.656,210.066 281.5,205.5C 282.167,204.167 282.833,202.833 283.5,201.5C 284.6,200.395 285.267,199.062 285.5,197.5C 286.117,197.389 286.617,197.056 287,196.5C 287.567,193.832 288.067,191.166 288.5,188.5C 289.34,179.862 289.673,171.195 289.5,162.5C 290.492,169.648 290.825,176.981 290.5,184.5C 290.321,192.558 287.988,199.892 283.5,206.5C 280.167,207.167 278.833,209.167 279.5,212.5C 278.167,213.167 277.167,214.167 276.5,215.5C 273.437,217.051 270.771,219.218 268.5,222C 261.884,225.495 255.217,228.662 248.5,231.5C 242.192,231.965 236.026,232.965 230,234.5C 228.221,233.521 226.555,233.854 225,235.5C 217.09,234.205 208.923,232.705 200.5,231C 199.058,230.623 198.058,229.79 197.5,228.5C 195.436,225.294 192.436,223.461 188.5,223C 187.547,221.045 186.213,219.378 184.5,218C 181.53,217.237 179.03,215.737 177,213.5C 172.073,206.65 167.906,199.317 164.5,191.5C 162.464,177.209 163.631,163.209 168,149.5C 168.708,148.619 169.542,147.953 170.5,147.5 Z"/></g>
<g><path style="opacity:0.008" fill="#fefffe" d="M 450.5,221.5 C 451.833,222.167 451.833,222.167 450.5,221.5 Z"/></g>
<g><path style="opacity:1" fill="#7572fb" d="M 117.5,313.5 C 116.207,312.158 115.374,310.491 115,308.5C 113.989,307.663 112.822,307.33 111.5,307.5C 111.145,305.11 110.478,302.777 109.5,300.5C 110.681,297.624 111.681,294.624 112.5,291.5C 111.348,287.459 112.514,284.126 116,281.5C 116.723,274.898 119.723,269.565 125,265.5C 126.664,262.673 127.83,259.673 128.5,256.5C 135.812,249.854 142.812,242.854 149.5,235.5C 154.166,233.168 158.499,230.334 162.5,227C 165.969,225.268 169.636,224.102 173.5,223.5C 178.755,221.213 182.755,222.547 185.5,227.5C 189.702,227.488 192.702,229.322 194.5,233C 193.655,234.558 194.321,235.558 196.5,236C 194.888,236.72 193.388,236.554 192,235.5C 190.693,236.772 189.193,237.772 187.5,238.5C 188.374,241.473 187.04,242.806 183.5,242.5C 183.5,243.5 183.5,244.5 183.5,245.5C 174.056,244.707 165.723,247.207 158.5,253C 156.423,253.192 154.423,253.692 152.5,254.5C 149.935,257.178 147.102,259.511 144,261.5C 143.667,261.167 143.333,260.833 143,260.5C 142.07,263.362 140.403,265.695 138,267.5C 137,267.167 136,266.833 135,266.5C 132.056,270.053 129.89,274.053 128.5,278.5C 129.855,279.675 129.688,280.675 128,281.5C 127.667,281.167 127.333,280.833 127,280.5C 125.745,285.74 123.245,290.24 119.5,294C 119.954,296.422 120.121,298.922 120,301.5C 121.746,304.882 123.246,308.382 124.5,312C 122.406,313.352 120.073,313.852 117.5,313.5 Z"/></g>
<g><path style="opacity:1" fill="#acadfd" d="M 276.5,215.5 C 275.167,217.167 273.833,218.833 272.5,220.5C 268.886,222.475 265.553,224.808 262.5,227.5C 261.5,227.833 260.833,228.5 260.5,229.5C 245.043,237.145 228.709,239.645 211.5,237C 206.478,235.153 201.478,233.319 196.5,231.5C 194.5,229.833 192.5,228.167 190.5,226.5C 193.108,226.4 195.442,227.067 197.5,228.5C 198.058,229.79 199.058,230.623 200.5,231C 208.923,232.705 217.09,234.205 225,235.5C 226.555,233.854 228.221,233.521 230,234.5C 236.026,232.965 242.192,231.965 248.5,231.5C 255.217,228.662 261.884,225.495 268.5,222C 270.771,219.218 273.437,217.051 276.5,215.5 Z"/></g>
<g><path style="opacity:1" fill="#9593fd" d="M 339.5,287.5 C 341.144,287.286 342.644,287.62 344,288.5C 346.242,294.749 346.742,301.083 345.5,307.5C 344.557,310.109 342.89,312.109 340.5,313.5C 341.412,311.405 342.579,309.405 344,307.5C 344.667,305.5 344.667,303.5 344,301.5C 341.243,302.945 339.076,304.945 337.5,307.5C 332.327,308.418 327.161,309.418 322,310.5C 319.922,309.48 318.255,310.147 317,312.5C 315.29,309.104 312.457,307.604 308.5,308C 307.034,307.365 305.7,306.531 304.5,305.5C 304.449,302.335 304.282,299.002 304,295.5C 303.51,296.793 303.343,298.127 303.5,299.5C 300.833,298.833 298.167,298.167 295.5,297.5C 295.5,295.833 295.5,294.167 295.5,292.5C 293.61,292.703 292.11,292.037 291,290.5C 290.319,288.105 289.485,285.772 288.5,283.5C 287.571,284.689 287.238,286.022 287.5,287.5C 284.833,287.5 282.167,287.5 279.5,287.5C 279.828,282.125 279.495,276.792 278.5,271.5C 277.126,270.289 275.626,269.289 274,268.5C 272.093,270.141 271.26,269.641 271.5,267C 271.68,264.759 272.513,264.259 274,265.5C 274.5,265 275,264.5 275.5,264C 273.939,263.682 272.772,262.849 272,261.5C 271.667,262.167 271.333,262.833 271,263.5C 269.875,260.216 268.875,256.883 268,253.5C 265.477,250.647 263.31,247.481 261.5,244C 262.167,242.667 262.833,241.333 263.5,240C 263.384,238.732 263.051,237.398 262.5,236C 265.495,234.339 267.828,232.005 269.5,229C 269.266,227.268 268.266,226.434 266.5,226.5C 265.151,226.846 263.817,227.179 262.5,227.5C 265.553,224.808 268.886,222.475 272.5,220.5C 274.782,219.61 277.115,219.444 279.5,220C 280.337,221.011 280.67,222.178 280.5,223.5C 277.74,224.569 274.907,225.569 272,226.5C 270.365,228.243 270.198,230.077 271.5,232C 271.01,233.982 270.01,235.649 268.5,237C 270.068,239.304 271.235,241.804 272,244.5C 280.624,253.455 289.624,262.122 299,270.5C 301.442,273.048 303.108,276.048 304,279.5C 305.183,278.269 306.349,278.269 307.5,279.5C 309.211,282.255 311.378,284.589 314,286.5C 314.749,289.757 316.416,292.424 319,294.5C 319.333,294.167 319.667,293.833 320,293.5C 323.153,300.661 328.653,303.494 336.5,302C 338.87,299.707 340.203,296.874 340.5,293.5C 339.652,291.591 339.318,289.591 339.5,287.5 Z"/></g>
<g><path style="opacity:1" fill="#807ffd" d="M 144.5,325.5 C 146.604,327.099 148.604,328.932 150.5,331C 157.289,334.369 164.123,337.536 171,340.5C 171.914,339.346 172.747,339.513 173.5,341C 180.782,341.445 187.949,342.612 195,344.5C 199.471,343.487 203.971,343.321 208.5,344C 207.366,345.016 207.699,345.683 209.5,346C 214.155,346.499 218.821,346.666 223.5,346.5C 223.5,347.5 223.5,348.5 223.5,349.5C 241.172,351.813 258.506,350.646 275.5,346C 276.376,344.415 277.709,343.415 279.5,343C 281.764,342.764 283.931,342.264 286,341.5C 286.333,341.833 286.667,342.167 287,342.5C 287.483,341.552 287.649,340.552 287.5,339.5C 292.892,337.864 297.892,335.364 302.5,332C 307.156,331.366 310.823,329.033 313.5,325C 314.448,324.517 315.448,324.351 316.5,324.5C 316.33,323.178 316.663,322.011 317.5,321C 321.333,318.671 325.333,316.671 329.5,315C 332.032,311.711 335.366,310.377 339.5,311C 338.663,312.011 338.33,313.178 338.5,314.5C 335.5,314.167 334.167,315.5 334.5,318.5C 332.517,318.157 331.183,318.824 330.5,320.5C 326.777,320.864 324.443,322.864 323.5,326.5C 319.969,328.096 316.636,329.93 313.5,332C 310.009,332.738 306.675,333.571 303.5,334.5C 286.858,344.548 268.858,350.714 249.5,353C 248.167,353.667 246.833,354.333 245.5,355C 236.77,355.876 228.104,355.542 219.5,354C 219.833,353.667 220.167,353.333 220.5,353C 211.514,351.585 202.514,350.252 193.5,349C 185.547,346.48 177.547,344.48 169.5,343C 163.552,339.801 157.552,336.801 151.5,334C 149.833,333 148.5,331.667 147.5,330C 144.443,329.744 141.443,329.244 138.5,328.5C 136.149,326.893 135.482,324.893 136.5,322.5C 134.517,321.018 132.684,319.351 131,317.5C 128.701,314.345 126.534,311.012 124.5,307.5C 123.867,304.228 124.034,300.895 125,297.5C 128.451,290.985 131.618,284.319 134.5,277.5C 138.242,275.917 141.576,273.75 144.5,271C 143.833,270.667 143.167,270.333 142.5,270C 145.389,267.553 148.056,264.886 150.5,262C 156.225,260.651 161.225,257.984 165.5,254C 171.589,253.082 177.589,251.748 183.5,250C 194.749,249.86 205.916,249.026 217,247.5C 219.889,247.547 222.722,247.88 225.5,248.5C 229.35,246.041 228.684,244.874 223.5,245C 227.821,244.501 232.154,244.334 236.5,244.5C 236.5,243.5 236.5,242.5 236.5,241.5C 241.128,241.884 245.461,241.05 249.5,239C 234.84,241.177 220.174,240.843 205.5,238C 202.079,236.301 199.079,234.135 196.5,231.5C 201.478,233.319 206.478,235.153 211.5,237C 228.709,239.645 245.043,237.145 260.5,229.5C 262.435,228.85 264.435,228.517 266.5,228.5C 266.649,229.552 266.483,230.552 266,231.5C 263.515,232.987 261.348,234.821 259.5,237C 258.207,237.49 256.873,237.657 255.5,237.5C 255.67,238.822 255.337,239.989 254.5,241C 251.789,242.261 249.622,244.094 248,246.5C 247.577,245.044 246.744,244.544 245.5,245C 245.167,246 244.833,247 244.5,248C 240.664,251.49 236.497,254.657 232,257.5C 229.864,258.268 227.697,258.934 225.5,259.5C 222.151,258.33 218.818,258.33 215.5,259.5C 218.167,260.167 220.833,260.833 223.5,261.5C 222.167,261.833 220.833,262.167 219.5,262.5C 208.746,261.822 198.08,260.489 187.5,258.5C 185.616,258.716 183.949,259.383 182.5,260.5C 179.215,259.029 176.382,259.696 174,262.5C 162.54,263.96 152.373,268.794 143.5,277C 143.833,277.333 144.167,277.667 144.5,278C 136.706,283.804 131.706,291.47 129.5,301C 129.324,312.506 134.324,320.672 144.5,325.5 Z"/></g>
<g><path style="opacity:1" fill="#8c8afe" d="M 337.5,307.5 C 334.265,309.765 330.765,311.765 327,313.5C 326.586,313.043 326.086,312.709 325.5,312.5C 323.981,313.851 322.648,315.351 321.5,317C 320.451,317.492 319.451,317.326 318.5,316.5C 317.107,317.863 315.441,318.696 313.5,319C 313.833,319.333 314.167,319.667 314.5,320C 313.552,320.483 312.552,320.649 311.5,320.5C 311.67,321.822 311.337,322.989 310.5,324C 305.637,327.924 300.637,331.59 295.5,335C 293,335.375 290.667,336.208 288.5,337.5C 287.833,336.833 287.167,336.167 286.5,335.5C 284.724,336.315 284.057,337.482 284.5,339C 283.128,339.402 281.795,339.902 280.5,340.5C 278.401,338.466 276.068,338.132 273.5,339.5C 274.609,341.214 273.942,341.881 271.5,341.5C 271.5,340.5 271.5,339.5 271.5,338.5C 266.167,338.5 260.833,338.5 255.5,338.5C 255.5,333.167 255.5,327.833 255.5,322.5C 250.167,321.833 244.833,321.167 239.5,320.5C 239.5,317.5 239.5,314.5 239.5,311.5C 236.833,311.5 234.167,311.5 231.5,311.5C 231.5,310.167 231.5,308.833 231.5,307.5C 228.212,307.927 225.212,307.26 222.5,305.5C 219.961,306.115 217.461,306.782 215,307.5C 214.586,307.043 214.086,306.709 213.5,306.5C 211.869,308.059 211.036,310.059 211,312.5C 209.989,313.337 208.822,313.67 207.5,313.5C 207.5,316.167 207.5,318.833 207.5,321.5C 205.712,321.215 204.045,321.548 202.5,322.5C 203.462,324.883 202.462,325.883 199.5,325.5C 199.5,327.5 199.5,329.5 199.5,331.5C 196.833,331.833 194.167,332.167 191.5,332.5C 191.5,333.5 191.5,334.5 191.5,335.5C 188.383,335.642 185.883,336.976 184,339.5C 180.255,338.703 176.421,338.203 172.5,338C 168.232,335.467 163.566,333.801 158.5,333C 153.609,330.724 148.943,328.224 144.5,325.5C 134.324,320.672 129.324,312.506 129.5,301C 131.706,291.47 136.706,283.804 144.5,278C 144.167,277.667 143.833,277.333 143.5,277C 152.373,268.794 162.54,263.96 174,262.5C 176.382,259.696 179.215,259.029 182.5,260.5C 183.949,259.383 185.616,258.716 187.5,258.5C 198.08,260.489 208.746,261.822 219.5,262.5C 220.833,262.167 222.167,261.833 223.5,261.5C 220.833,260.833 218.167,260.167 215.5,259.5C 218.818,258.33 222.151,258.33 225.5,259.5C 227.697,258.934 229.864,258.268 232,257.5C 236.497,254.657 240.664,251.49 244.5,248C 244.833,247 245.167,246 245.5,245C 246.744,244.544 247.577,245.044 248,246.5C 249.622,244.094 251.789,242.261 254.5,241C 255.337,239.989 255.67,238.822 255.5,237.5C 256.873,237.657 258.207,237.49 259.5,237C 261.348,234.821 263.515,232.987 266,231.5C 266.483,230.552 266.649,229.552 266.5,228.5C 264.435,228.517 262.435,228.85 260.5,229.5C 260.833,228.5 261.5,227.833 262.5,227.5C 263.817,227.179 265.151,226.846 266.5,226.5C 268.266,226.434 269.266,227.268 269.5,229C 267.828,232.005 265.495,234.339 262.5,236C 263.051,237.398 263.384,238.732 263.5,240C 262.833,241.333 262.167,242.667 261.5,244C 263.31,247.481 265.477,250.647 268,253.5C 268.875,256.883 269.875,260.216 271,263.5C 271.333,262.833 271.667,262.167 272,261.5C 272.772,262.849 273.939,263.682 275.5,264C 275,264.5 274.5,265 274,265.5C 272.513,264.259 271.68,264.759 271.5,267C 271.26,269.641 272.093,270.141 274,268.5C 275.626,269.289 277.126,270.289 278.5,271.5C 279.495,276.792 279.828,282.125 279.5,287.5C 282.167,287.5 284.833,287.5 287.5,287.5C 287.238,286.022 287.571,284.689 288.5,283.5C 289.485,285.772 290.319,288.105 291,290.5C 292.11,292.037 293.61,292.703 295.5,292.5C 295.5,294.167 295.5,295.833 295.5,297.5C 298.167,298.167 300.833,298.833 303.5,299.5C 303.343,298.127 303.51,296.793 304,295.5C 304.282,299.002 304.449,302.335 304.5,305.5C 305.7,306.531 307.034,307.365 308.5,308C 312.457,307.604 315.29,309.104 317,312.5C 318.255,310.147 319.922,309.48 322,310.5C 327.161,309.418 332.327,308.418 337.5,307.5 Z"/></g>
<g><path style="opacity:0.008" fill="#fefffe" d="M 406.5,243.5 C 407.833,244.167 407.833,244.167 406.5,243.5 Z"/></g>
<g><path style="opacity:0.004" fill="#fefffe" d="M 450.5,243.5 C 451.833,244.167 451.833,244.167 450.5,243.5 Z"/></g>
<g><path style="opacity:0.008" fill="#fefffe" d="M 42.5,244.5 C 43.8333,245.167 43.8333,245.167 42.5,244.5 Z"/></g>
<g><path style="opacity:0.004" fill="#fefffe" d="M 432.5,244.5 C 433.833,245.167 433.833,245.167 432.5,244.5 Z"/></g>
<g><path style="opacity:1" fill="#a6a6f8" d="M 351.5,288.5 C 349.77,293.57 348.77,298.903 348.5,304.5C 347.833,305.833 346.833,306.833 345.5,307.5C 346.742,301.083 346.242,294.749 344,288.5C 342.644,287.62 341.144,287.286 339.5,287.5C 339.579,286.07 339.246,284.736 338.5,283.5C 339.489,282.532 340.156,281.365 340.5,280C 339.834,278.331 339.834,276.831 340.5,275.5C 339.478,272.013 337.145,270.68 333.5,271.5C 334.385,276.376 335.885,281.043 338,285.5C 338.499,289.152 338.665,292.818 338.5,296.5C 337.178,296.33 336.011,296.663 335,297.5C 330.669,295.843 328.002,293.177 327,289.5C 325,286.833 322.667,284.5 320,282.5C 319.667,282.833 319.333,283.167 319,283.5C 316.731,279.962 314.731,276.295 313,272.5C 305.587,268.089 299.921,262.089 296,254.5C 293.931,253.736 291.764,253.236 289.5,253C 288.167,252.333 288.167,251.667 289.5,251C 286.767,248.216 283.601,246.049 280,244.5C 278.592,240.169 276.092,236.669 272.5,234C 273.833,233 273.833,232 272.5,231C 276.219,228.292 279.886,228.125 283.5,230.5C 280.833,230.5 278.167,230.5 275.5,230.5C 282.097,241.002 291.097,249.002 302.5,254.5C 303.624,256.369 304.457,258.369 305,260.5C 311.805,265.634 317.138,271.968 321,279.5C 322.333,280.167 323.667,280.833 325,281.5C 325.36,283.421 326.194,285.088 327.5,286.5C 331.151,287.162 333.484,289.162 334.5,292.5C 335.675,292.719 336.675,292.386 337.5,291.5C 335.969,285.43 334.135,279.43 332,273.5C 328.663,267.521 324.996,261.854 321,256.5C 319.644,255.62 318.144,255.286 316.5,255.5C 316.509,253.692 316.009,252.025 315,250.5C 312.14,248.498 309.64,246.165 307.5,243.5C 311.568,244.067 314.734,246.067 317,249.5C 317.692,248.975 318.192,248.308 318.5,247.5C 316.656,245.018 315.323,242.351 314.5,239.5C 310.956,239.761 309.122,238.095 309,234.5C 306.5,232 304,229.5 301.5,227C 299.925,227.379 298.425,227.212 297,226.5C 296.667,224.5 296.333,222.5 296,220.5C 293.523,219.125 292.689,217.291 293.5,215C 291.598,214.801 290.098,213.967 289,212.5C 288.899,209.3 288.232,206.3 287,203.5C 284.636,206.69 282.136,209.69 279.5,212.5C 278.833,209.167 280.167,207.167 283.5,206.5C 287.988,199.892 290.321,192.558 290.5,184.5C 291.222,184.082 291.722,183.416 292,182.5C 292.094,176.722 292.761,171.056 294,165.5C 294.333,166.167 294.667,166.833 295,167.5C 295.368,166.09 296.201,165.09 297.5,164.5C 298.51,167.969 297.843,171.135 295.5,174C 297.609,175.141 299.442,176.641 301,178.5C 301.175,174.789 301.675,171.122 302.5,167.5C 305.614,169.113 308.947,170.113 312.5,170.5C 313.754,172.259 313.421,173.759 311.5,175C 314.069,177.479 316.402,180.146 318.5,183C 316.963,186.356 317.297,189.523 319.5,192.5C 318.855,193.646 318.022,194.646 317,195.5C 316.501,199.486 316.334,203.486 316.5,207.5C 319.062,208.371 321.728,208.371 324.5,207.5C 324.5,204.833 324.5,202.167 324.5,199.5C 325.833,198.833 327.167,198.167 328.5,197.5C 328.338,195.473 328.505,193.473 329,191.5C 329.667,192.833 330.333,192.833 331,191.5C 331.829,196.864 331.663,202.198 330.5,207.5C 327.505,212.482 327.005,217.816 329,223.5C 330.11,225.037 331.61,225.703 333.5,225.5C 334.401,231.623 335.901,237.623 338,243.5C 338.833,245.667 340.333,247.167 342.5,248C 342.167,248.333 341.833,248.667 341.5,249C 342.086,251.28 342.92,253.447 344,255.5C 344.333,254.5 344.667,253.5 345,252.5C 345.988,255.424 346.654,258.424 347,261.5C 347.667,262.833 348.333,262.833 349,261.5C 350.494,265.51 352.661,269.177 355.5,272.5C 353.233,277.9 351.9,283.233 351.5,288.5 Z"/></g>
<g><path style="opacity:1" fill="#b2b2fe" d="M 283.5,230.5 C 288.912,230.603 293.912,232.103 298.5,235C 301.403,238.073 304.403,240.906 307.5,243.5C 309.64,246.165 312.14,248.498 315,250.5C 316.009,252.025 316.509,253.692 316.5,255.5C 318.144,255.286 319.644,255.62 321,256.5C 324.996,261.854 328.663,267.521 332,273.5C 334.135,279.43 335.969,285.43 337.5,291.5C 336.675,292.386 335.675,292.719 334.5,292.5C 333.484,289.162 331.151,287.162 327.5,286.5C 326.194,285.088 325.36,283.421 325,281.5C 323.667,280.833 322.333,280.167 321,279.5C 317.138,271.968 311.805,265.634 305,260.5C 304.457,258.369 303.624,256.369 302.5,254.5C 291.097,249.002 282.097,241.002 275.5,230.5C 278.167,230.5 280.833,230.5 283.5,230.5 Z"/></g>
<g><path style="opacity:1" fill="#a1a0fa" d="M 307.5,243.5 C 304.403,240.906 301.403,238.073 298.5,235C 293.912,232.103 288.912,230.603 283.5,230.5C 279.886,228.125 276.219,228.292 272.5,231C 273.833,232 273.833,233 272.5,234C 276.092,236.669 278.592,240.169 280,244.5C 283.601,246.049 286.767,248.216 289.5,251C 288.167,251.667 288.167,252.333 289.5,253C 291.764,253.236 293.931,253.736 296,254.5C 299.921,262.089 305.587,268.089 313,272.5C 314.731,276.295 316.731,279.962 319,283.5C 319.333,283.167 319.667,282.833 320,282.5C 322.667,284.5 325,286.833 327,289.5C 328.002,293.177 330.669,295.843 335,297.5C 336.011,296.663 337.178,296.33 338.5,296.5C 338.665,292.818 338.499,289.152 338,285.5C 335.885,281.043 334.385,276.376 333.5,271.5C 337.145,270.68 339.478,272.013 340.5,275.5C 339.834,276.831 339.834,278.331 340.5,280C 340.156,281.365 339.489,282.532 338.5,283.5C 339.246,284.736 339.579,286.07 339.5,287.5C 339.318,289.591 339.652,291.591 340.5,293.5C 340.203,296.874 338.87,299.707 336.5,302C 328.653,303.494 323.153,300.661 320,293.5C 319.667,293.833 319.333,294.167 319,294.5C 316.416,292.424 314.749,289.757 314,286.5C 311.378,284.589 309.211,282.255 307.5,279.5C 306.349,278.269 305.183,278.269 304,279.5C 303.108,276.048 301.442,273.048 299,270.5C 289.624,262.122 280.624,253.455 272,244.5C 271.235,241.804 270.068,239.304 268.5,237C 270.01,235.649 271.01,233.982 271.5,232C 270.198,230.077 270.365,228.243 272,226.5C 274.907,225.569 277.74,224.569 280.5,223.5C 280.67,222.178 280.337,221.011 279.5,220C 277.115,219.444 274.782,219.61 272.5,220.5C 273.833,218.833 275.167,217.167 276.5,215.5C 277.167,214.167 278.167,213.167 279.5,212.5C 282.136,209.69 284.636,206.69 287,203.5C 288.232,206.3 288.899,209.3 289,212.5C 290.098,213.967 291.598,214.801 293.5,215C 292.689,217.291 293.523,219.125 296,220.5C 296.333,222.5 296.667,224.5 297,226.5C 298.425,227.212 299.925,227.379 301.5,227C 304,229.5 306.5,232 309,234.5C 309.122,238.095 310.956,239.761 314.5,239.5C 315.323,242.351 316.656,245.018 318.5,247.5C 318.192,248.308 317.692,248.975 317,249.5C 314.734,246.067 311.568,244.067 307.5,243.5 Z"/></g>
<g><path style="opacity:0.004" fill="#fefffe" d="M 64.5,271.5 C 65.8333,272.167 65.8333,272.167 64.5,271.5 Z"/></g>
<g><path style="opacity:1" fill="#adaceb" d="M 76.5,223.5 C 76.335,226.85 76.5017,230.183 77,233.5C 79.9117,237.734 81.745,242.4 82.5,247.5C 81.5769,251.849 82.9102,255.183 86.5,257.5C 89.2669,261.938 91.6003,266.605 93.5,271.5C 93.5,272.5 93.5,273.5 93.5,274.5C 92.1667,274.5 90.8333,274.5 89.5,274.5C 89.3398,276.199 89.5065,277.866 90,279.5C 93.9252,281.751 97.5919,284.417 101,287.5C 102.182,289.344 103.349,291.177 104.5,293C 103.67,294.465 103.504,295.965 104,297.5C 104.278,296.584 104.778,295.918 105.5,295.5C 104.741,300.827 106.074,305.494 109.5,309.5C 110.925,310.922 111.925,312.589 112.5,314.5C 110.537,313.04 108.704,311.373 107,309.5C 105.106,304.948 102.439,300.948 99,297.5C 97.4873,293.319 95.154,289.652 92,286.5C 89.9639,281.705 87.6305,277.038 85,272.5C 85.3371,268.817 83.8371,266.484 80.5,265.5C 79.7724,262.921 79.2724,260.254 79,257.5C 75.1558,252.155 72.8225,246.155 72,239.5C 70.1327,222.063 68.966,204.729 68.5,187.5C 68.8333,186.833 69.1667,186.167 69.5,185.5C 70.1174,185.389 70.6174,185.056 71,184.5C 72.4351,175.688 74.9351,167.354 78.5,159.5C 79.675,159.281 80.675,159.614 81.5,160.5C 76.0269,179.059 73.8602,198.059 75,217.5C 75.1909,219.708 75.6909,221.708 76.5,223.5 Z"/></g>
<g><path style="opacity:1" fill="#b1b0da" d="M 80.5,265.5 C 83.8371,266.484 85.3371,268.817 85,272.5C 87.6305,277.038 89.9639,281.705 92,286.5C 95.154,289.652 97.4873,293.319 99,297.5C 102.439,300.948 105.106,304.948 107,309.5C 108.704,311.373 110.537,313.04 112.5,314.5C 117.167,319.5 121.833,324.5 126.5,329.5C 122.581,326.925 118.915,323.925 115.5,320.5C 110.771,315.776 106.437,310.776 102.5,305.5C 93.6079,293.051 86.2746,279.718 80.5,265.5 Z"/></g>
<g><path style="opacity:0.384" fill="#dfdef2" d="M 68.5,187.5 C 68.966,204.729 70.1327,222.063 72,239.5C 72.8225,246.155 75.1558,252.155 79,257.5C 79.2724,260.254 79.7724,262.921 80.5,265.5C 86.2746,279.718 93.6079,293.051 102.5,305.5C 75.047,271.053 63.7137,231.72 68.5,187.5 Z"/></g>
<g><path style="opacity:1" fill="#7a77e9" d="M 128.5,256.5 C 127.83,259.673 126.664,262.673 125,265.5C 119.723,269.565 116.723,274.898 116,281.5C 112.514,284.126 111.348,287.459 112.5,291.5C 111.681,294.624 110.681,297.624 109.5,300.5C 110.478,302.777 111.145,305.11 111.5,307.5C 112.822,307.33 113.989,307.663 115,308.5C 115.374,310.491 116.207,312.158 117.5,313.5C 117.5,314.167 117.5,314.833 117.5,315.5C 115.2,313.016 112.533,311.016 109.5,309.5C 106.074,305.494 104.741,300.827 105.5,295.5C 107.57,287.359 111.237,280.026 116.5,273.5C 118.934,266.732 122.934,261.065 128.5,256.5 Z"/></g>
<g><path style="opacity:1" fill="#9593fe" d="M 167.5,276.5 C 173.884,276.051 179.884,277.218 185.5,280C 184.833,280.333 184.167,280.667 183.5,281C 186.587,281.876 188.92,283.71 190.5,286.5C 191.498,294.807 191.831,303.14 191.5,311.5C 190.325,311.281 189.325,311.614 188.5,312.5C 187.423,314.729 186.756,317.063 186.5,319.5C 185.5,319.5 184.5,319.5 183.5,319.5C 182.323,322.038 180.656,324.371 178.5,326.5C 178.833,327.167 179.167,327.833 179.5,328.5C 174.017,330.636 168.35,331.47 162.5,331C 155.332,328.749 148.665,325.416 142.5,321C 141.481,318.44 140.148,315.607 138.5,312.5C 139.934,311.77 141.1,310.77 142,309.5C 141.664,304.206 141.497,299.373 141.5,295C 142.126,294.25 142.626,293.416 143,292.5C 143.333,292.833 143.667,293.167 144,293.5C 144.333,292.5 144.667,291.5 145,290.5C 150.727,285.103 157.227,280.77 164.5,277.5C 166.225,279.092 167.225,278.758 167.5,276.5 Z"/></g>
<g><path style="opacity:0.004" fill="#fefffe" d="M 382.5,299.5 C 383.833,300.167 383.833,300.167 382.5,299.5 Z"/></g>
<g><path style="opacity:1" fill="#8786fe" d="M 340.5,313.5 C 337.836,315.484 336.169,318.151 335.5,321.5C 332.065,322.436 329.065,324.102 326.5,326.5C 326.5,325.167 326.5,323.833 326.5,322.5C 328.483,322.843 329.817,322.176 330.5,320.5C 331.183,318.824 332.517,318.157 334.5,318.5C 334.167,315.5 335.5,314.167 338.5,314.5C 338.33,313.178 338.663,312.011 339.5,311C 335.366,310.377 332.032,311.711 329.5,315C 325.333,316.671 321.333,318.671 317.5,321C 316.663,322.011 316.33,323.178 316.5,324.5C 315.448,324.351 314.448,324.517 313.5,325C 310.823,329.033 307.156,331.366 302.5,332C 297.892,335.364 292.892,337.864 287.5,339.5C 287.649,340.552 287.483,341.552 287,342.5C 286.667,342.167 286.333,341.833 286,341.5C 283.931,342.264 281.764,342.764 279.5,343C 277.709,343.415 276.376,344.415 275.5,346C 258.506,350.646 241.172,351.813 223.5,349.5C 223.5,348.5 223.5,347.5 223.5,346.5C 218.821,346.666 214.155,346.499 209.5,346C 207.699,345.683 207.366,345.016 208.5,344C 203.971,343.321 199.471,343.487 195,344.5C 187.949,342.612 180.782,341.445 173.5,341C 172.747,339.513 171.914,339.346 171,340.5C 164.123,337.536 157.289,334.369 150.5,331C 148.604,328.932 146.604,327.099 144.5,325.5C 148.943,328.224 153.609,330.724 158.5,333C 163.566,333.801 168.232,335.467 172.5,338C 176.421,338.203 180.255,338.703 184,339.5C 185.883,336.976 188.383,335.642 191.5,335.5C 191.5,334.5 191.5,333.5 191.5,332.5C 194.167,332.167 196.833,331.833 199.5,331.5C 199.5,329.5 199.5,327.5 199.5,325.5C 202.462,325.883 203.462,324.883 202.5,322.5C 204.045,321.548 205.712,321.215 207.5,321.5C 207.5,318.833 207.5,316.167 207.5,313.5C 208.822,313.67 209.989,313.337 211,312.5C 211.036,310.059 211.869,308.059 213.5,306.5C 214.086,306.709 214.586,307.043 215,307.5C 217.461,306.782 219.961,306.115 222.5,305.5C 225.212,307.26 228.212,307.927 231.5,307.5C 231.5,308.833 231.5,310.167 231.5,311.5C 234.167,311.5 236.833,311.5 239.5,311.5C 239.5,314.5 239.5,317.5 239.5,320.5C 244.833,321.167 250.167,321.833 255.5,322.5C 255.5,327.833 255.5,333.167 255.5,338.5C 260.833,338.5 266.167,338.5 271.5,338.5C 271.5,339.5 271.5,340.5 271.5,341.5C 273.942,341.881 274.609,341.214 273.5,339.5C 276.068,338.132 278.401,338.466 280.5,340.5C 281.795,339.902 283.128,339.402 284.5,339C 284.057,337.482 284.724,336.315 286.5,335.5C 287.167,336.167 287.833,336.833 288.5,337.5C 290.667,336.208 293,335.375 295.5,335C 300.637,331.59 305.637,327.924 310.5,324C 311.337,322.989 311.67,321.822 311.5,320.5C 312.552,320.649 313.552,320.483 314.5,320C 314.167,319.667 313.833,319.333 313.5,319C 315.441,318.696 317.107,317.863 318.5,316.5C 319.451,317.326 320.451,317.492 321.5,317C 322.648,315.351 323.981,313.851 325.5,312.5C 326.086,312.709 326.586,313.043 327,313.5C 330.765,311.765 334.265,309.765 337.5,307.5C 339.076,304.945 341.243,302.945 344,301.5C 344.667,303.5 344.667,305.5 344,307.5C 342.579,309.405 341.412,311.405 340.5,313.5 Z"/></g>
<g><path style="opacity:0.502" fill="#cfcdf2" d="M 356.5,297.5 C 350.433,306.29 343.433,314.29 335.5,321.5C 336.169,318.151 337.836,315.484 340.5,313.5C 342.89,312.109 344.557,310.109 345.5,307.5C 346.833,306.833 347.833,305.833 348.5,304.5C 351.141,302.196 353.808,299.862 356.5,297.5 Z"/></g>
<g><path style="opacity:1" fill="#7672c3" d="M 109.5,309.5 C 112.533,311.016 115.2,313.016 117.5,315.5C 120.552,319.058 123.886,322.558 127.5,326C 140.5,335.328 154.167,343.994 168.5,352C 179.17,355.582 190.17,358.082 201.5,359.5C 203.249,360.985 205.249,361.985 207.5,362.5C 204.167,362.5 200.833,362.5 197.5,362.5C 194.781,361.087 191.781,360.42 188.5,360.5C 184.105,358.565 179.438,357.231 174.5,356.5C 170.863,355.737 167.53,354.403 164.5,352.5C 158.897,349.025 153.231,345.525 147.5,342C 146.207,341.51 144.873,341.343 143.5,341.5C 141.847,341.34 140.514,340.674 139.5,339.5C 138.415,337.413 136.749,336.08 134.5,335.5C 132.973,335.573 131.973,334.906 131.5,333.5C 130.415,331.413 128.749,330.08 126.5,329.5C 121.833,324.5 117.167,319.5 112.5,314.5C 111.925,312.589 110.925,310.922 109.5,309.5 Z"/></g>
<g><path style="opacity:0.004" fill="#fefffe" d="M 429.5,329.5 C 430.833,330.167 430.833,330.167 429.5,329.5 Z"/></g>
<g><path style="opacity:0.702" fill="#c0bee8" d="M 335.5,321.5 C 319.056,337.732 299.723,349.399 277.5,356.5C 277.782,355.222 278.449,354.222 279.5,353.5C 281.927,353.477 284.26,352.977 286.5,352C 291.754,349.505 297.087,347.005 302.5,344.5C 306.486,340.709 311.152,337.876 316.5,336C 320.065,332.932 323.398,329.765 326.5,326.5C 329.065,324.102 332.065,322.436 335.5,321.5 Z"/></g>
<g><path style="opacity:0.345" fill="#dddbf4" d="M 126.5,329.5 C 128.749,330.08 130.415,331.413 131.5,333.5C 129.251,332.92 127.585,331.587 126.5,329.5 Z"/></g>
<g><path style="opacity:1" fill="#716cda" d="M 330.5,320.5 C 329.817,322.176 328.483,322.843 326.5,322.5C 326.5,323.833 326.5,325.167 326.5,326.5C 323.398,329.765 320.065,332.932 316.5,336C 311.152,337.876 306.486,340.709 302.5,344.5C 297.087,347.005 291.754,349.505 286.5,352C 284.26,352.977 281.927,353.477 279.5,353.5C 277.284,353.275 275.617,354.108 274.5,356C 270.848,356.499 267.182,356.665 263.5,356.5C 264.677,354.968 266.011,353.468 267.5,352C 271.167,351.667 274.833,351.333 278.5,351C 284.129,349.105 289.796,347.105 295.5,345C 296.167,344 296.833,343 297.5,342C 300.289,341.759 302.956,341.092 305.5,340C 306.406,338.301 306.739,336.467 306.5,334.5C 305.5,334.5 304.5,334.5 303.5,334.5C 306.675,333.571 310.009,332.738 313.5,332C 316.636,329.93 319.969,328.096 323.5,326.5C 324.443,322.864 326.777,320.864 330.5,320.5 Z"/></g>
<g><path style="opacity:0.008" fill="#fefffe" d="M 406.5,332.5 C 407.833,333.167 407.833,333.167 406.5,332.5 Z"/></g>
<g><path style="opacity:0.063" fill="#e3e4f7" d="M 134.5,335.5 C 136.749,336.08 138.415,337.413 139.5,339.5C 137.251,338.92 135.585,337.587 134.5,335.5 Z"/></g>
<g><path style="opacity:0.839" fill="#bfbee1" d="M 143.5,341.5 C 144.873,341.343 146.207,341.51 147.5,342C 153.231,345.525 158.897,349.025 164.5,352.5C 156.735,350.119 149.735,346.452 143.5,341.5 Z"/></g>
<g><path style="opacity:1" fill="#7673f7" d="M 185.5,223.5 C 187.001,224.752 188.668,225.752 190.5,226.5C 192.5,228.167 194.5,229.833 196.5,231.5C 199.079,234.135 202.079,236.301 205.5,238C 220.174,240.843 234.84,241.177 249.5,239C 245.461,241.05 241.128,241.884 236.5,241.5C 236.5,242.5 236.5,243.5 236.5,244.5C 232.154,244.334 227.821,244.501 223.5,245C 228.684,244.874 229.35,246.041 225.5,248.5C 222.722,247.88 219.889,247.547 217,247.5C 205.916,249.026 194.749,249.86 183.5,250C 177.589,251.748 171.589,253.082 165.5,254C 161.225,257.984 156.225,260.651 150.5,262C 148.056,264.886 145.389,267.553 142.5,270C 143.167,270.333 143.833,270.667 144.5,271C 141.576,273.75 138.242,275.917 134.5,277.5C 131.618,284.319 128.451,290.985 125,297.5C 124.034,300.895 123.867,304.228 124.5,307.5C 126.534,311.012 128.701,314.345 131,317.5C 132.684,319.351 134.517,321.018 136.5,322.5C 135.482,324.893 136.149,326.893 138.5,328.5C 141.443,329.244 144.443,329.744 147.5,330C 148.5,331.667 149.833,333 151.5,334C 157.552,336.801 163.552,339.801 169.5,343C 177.547,344.48 185.547,346.48 193.5,349C 202.514,350.252 211.514,351.585 220.5,353C 220.167,353.333 219.833,353.667 219.5,354C 228.104,355.542 236.77,355.876 245.5,355C 246.833,354.333 248.167,353.667 249.5,353C 268.858,350.714 286.858,344.548 303.5,334.5C 304.5,334.5 305.5,334.5 306.5,334.5C 306.739,336.467 306.406,338.301 305.5,340C 302.956,341.092 300.289,341.759 297.5,342C 296.833,343 296.167,344 295.5,345C 289.796,347.105 284.129,349.105 278.5,351C 274.833,351.333 271.167,351.667 267.5,352C 266.011,353.468 264.677,354.968 263.5,356.5C 243.079,360.388 222.412,361.388 201.5,359.5C 190.17,358.082 179.17,355.582 168.5,352C 154.167,343.994 140.5,335.328 127.5,326C 123.886,322.558 120.552,319.058 117.5,315.5C 117.5,314.833 117.5,314.167 117.5,313.5C 120.073,313.852 122.406,313.352 124.5,312C 123.246,308.382 121.746,304.882 120,301.5C 120.121,298.922 119.954,296.422 119.5,294C 123.245,290.24 125.745,285.74 127,280.5C 127.333,280.833 127.667,281.167 128,281.5C 129.688,280.675 129.855,279.675 128.5,278.5C 129.89,274.053 132.056,270.053 135,266.5C 136,266.833 137,267.167 138,267.5C 140.403,265.695 142.07,263.362 143,260.5C 143.333,260.833 143.667,261.167 144,261.5C 147.102,259.511 149.935,257.178 152.5,254.5C 154.423,253.692 156.423,253.192 158.5,253C 165.723,247.207 174.056,244.707 183.5,245.5C 183.5,244.5 183.5,243.5 183.5,242.5C 187.04,242.806 188.374,241.473 187.5,238.5C 189.193,237.772 190.693,236.772 192,235.5C 193.388,236.554 194.888,236.72 196.5,236C 194.321,235.558 193.655,234.558 194.5,233C 192.702,229.322 189.702,227.488 185.5,227.5C 182.755,222.547 178.755,221.213 173.5,223.5C 174.952,221.9 176.785,220.9 179,220.5C 181.282,221.29 183.448,222.29 185.5,223.5 Z"/></g>
<g><path style="opacity:0.486" fill="#dddef1" d="M 174.5,356.5 C 179.438,357.231 184.105,358.565 188.5,360.5C 183.46,360.15 178.794,358.816 174.5,356.5 Z"/></g>
<g><path style="opacity:1" fill="#716db9" d="M 279.5,353.5 C 278.449,354.222 277.782,355.222 277.5,356.5C 276.791,357.404 275.791,357.737 274.5,357.5C 268.144,358.283 261.811,359.283 255.5,360.5C 258.167,359.167 260.833,357.833 263.5,356.5C 267.182,356.665 270.848,356.499 274.5,356C 275.617,354.108 277.284,353.275 279.5,353.5 Z"/></g>
<g><path style="opacity:0.008" fill="#fefffe" d="M 40.5,358.5 C 41.8333,359.167 41.8333,359.167 40.5,358.5 Z"/></g>
<g><path style="opacity:0.008" fill="#fefffe" d="M 288.5,358.5 C 289.833,359.167 289.833,359.167 288.5,358.5 Z"/></g>
<g><path style="opacity:0.008" fill="#fefffe" d="M 421.5,358.5 C 422.833,359.167 422.833,359.167 421.5,358.5 Z"/></g>
<g><path style="opacity:1" fill="#6562c6" d="M 263.5,356.5 C 260.833,357.833 258.167,359.167 255.5,360.5C 249.949,360.527 244.616,361.194 239.5,362.5C 228.833,363.833 218.167,363.833 207.5,362.5C 205.249,361.985 203.249,360.985 201.5,359.5C 222.412,361.388 243.079,360.388 263.5,356.5 Z"/></g>
<g><path style="opacity:1" fill="#9794c7" d="M 274.5,357.5 C 268.532,360.149 262.198,361.816 255.5,362.5C 250.167,362.5 244.833,362.5 239.5,362.5C 244.616,361.194 249.949,360.527 255.5,360.5C 261.811,359.283 268.144,358.283 274.5,357.5 Z"/></g>
<g><path style="opacity:0.243" fill="#e0e0f5" d="M 188.5,360.5 C 191.781,360.42 194.781,361.087 197.5,362.5C 194.171,362.785 191.171,362.118 188.5,360.5 Z"/></g>
<g><path style="opacity:0.004" fill="#fefffe" d="M 337.5,362.5 C 338.833,363.167 338.833,363.167 337.5,362.5 Z"/></g>
<g><path style="opacity:0.806" fill="#bbbad9" d="M 197.5,362.5 C 200.833,362.5 204.167,362.5 207.5,362.5C 218.167,363.833 228.833,363.833 239.5,362.5C 244.833,362.5 250.167,362.5 255.5,362.5C 245.759,364.655 235.759,365.655 225.5,365.5C 220.126,365.116 214.96,365.116 210,365.5C 205.689,364.726 201.523,363.726 197.5,362.5 Z"/></g>
<g><path style="opacity:0.004" fill="#fefffe" d="M 90.5,376.5 C 91.8333,377.167 91.8333,377.167 90.5,376.5 Z"/></g>
<g><path style="opacity:0.004" fill="#fefffe" d="M 69.5,378.5 C 70.8333,379.167 70.8333,379.167 69.5,378.5 Z"/></g>
<g><path style="opacity:0.008" fill="#fefffe" d="M 41.5,389.5 C 42.8333,390.167 42.8333,390.167 41.5,389.5 Z"/></g>
<g><path style="opacity:0.008" fill="#fefffe" d="M 34.5,392.5 C 35.8333,393.167 35.8333,393.167 34.5,392.5 Z"/></g>
</svg>
